<svg xmlns="http://www.w3.org/2000/svg" xmlns:xlink="http://www.w3.org/1999/xlink" width="63" zoomAndPan="magnify" viewBox="0 0 47.25 30.000001" height="40" preserveAspectRatio="xMidYMid meet" version="1.0"><defs><clipPath id="61889f0a46"><path d="M 27 17 L 39 17 L 39 29.03125 L 27 29.03125 Z M 27 17 " clip-rule="nonzero"/></clipPath><clipPath id="eb8293784c"><path d="M 39 16 L 44.398438 16 L 44.398438 22 L 39 22 Z M 39 16 " clip-rule="nonzero"/></clipPath><clipPath id="8a23c22c09"><path d="M 2.300781 22 L 8 22 L 8 28 L 2.300781 28 Z M 2.300781 22 " clip-rule="nonzero"/></clipPath></defs><path fill="#1c73b7" d="M 33.085938 9.390625 L 36.75 9.390625 L 36.75 12.8125 L 40.167969 12.8125 L 40.167969 16.574219 L 36.75 16.574219 L 36.75 19.992188 L 32.988281 19.992188 L 32.988281 16.574219 L 29.566406 16.574219 L 29.566406 12.8125 L 32.988281 12.8125 L 32.988281 9.390625 Z M 36.546875 9.59375 L 33.1875 9.59375 L 33.1875 13.011719 L 29.769531 13.011719 L 29.769531 16.371094 L 33.1875 16.371094 L 33.1875 19.792969 L 36.546875 19.792969 L 36.546875 16.371094 L 39.96875 16.371094 L 39.96875 13.011719 L 36.546875 13.011719 Z M 36.546875 9.59375 " fill-opacity="1" fill-rule="nonzero"/><path fill="#1c73b7" d="M 23.460938 13.726562 L 26.246094 13.726562 L 26.246094 16.238281 L 28.757812 16.238281 L 28.757812 19.191406 L 26.246094 19.191406 L 26.246094 21.703125 L 23.292969 21.703125 L 23.292969 19.191406 L 20.78125 19.191406 L 20.78125 16.238281 L 23.292969 16.238281 L 23.292969 13.726562 Z M 25.90625 14.0625 L 23.628906 14.0625 L 23.628906 16.574219 L 21.117188 16.574219 L 21.117188 18.855469 L 23.628906 18.855469 L 23.628906 21.367188 L 25.90625 21.367188 L 25.90625 18.855469 L 28.417969 18.855469 L 28.417969 16.574219 L 25.90625 16.574219 Z M 25.90625 14.0625 " fill-opacity="1" fill-rule="nonzero"/><path fill="#1c73b7" d="M 22.597656 9.636719 L 24.507812 9.636719 L 24.507812 11.371094 L 26.242188 11.371094 L 26.242188 13.382812 L 24.507812 13.382812 L 24.507812 15.121094 L 22.496094 15.121094 L 22.496094 13.382812 L 20.757812 13.382812 L 20.757812 11.371094 L 22.496094 11.371094 L 22.496094 9.636719 Z M 24.304688 9.839844 L 22.695312 9.839844 L 22.695312 11.574219 L 20.960938 11.574219 L 20.960938 13.183594 L 22.695312 13.183594 L 22.695312 14.917969 L 24.304688 14.917969 L 24.304688 13.183594 L 26.039062 13.183594 L 26.039062 11.574219 L 24.304688 11.574219 Z M 24.304688 9.839844 " fill-opacity="1" fill-rule="nonzero"/><path fill="#1c73b7" d="M 16.917969 18.117188 L 18.453125 18.117188 L 18.453125 19.425781 L 19.765625 19.425781 L 19.765625 21.128906 L 18.453125 21.128906 L 18.453125 22.441406 L 16.75 22.441406 L 16.75 21.128906 L 15.4375 21.128906 L 15.4375 19.425781 L 16.75 19.425781 L 16.75 18.117188 Z M 18.113281 18.453125 L 17.085938 18.453125 L 17.085938 19.761719 L 15.773438 19.761719 L 15.773438 20.792969 L 17.085938 20.792969 L 17.085938 22.105469 L 18.113281 22.105469 L 18.113281 20.792969 L 19.425781 20.792969 L 19.425781 19.761719 L 18.113281 19.761719 Z M 18.113281 18.453125 " fill-opacity="1" fill-rule="nonzero"/><g clip-path="url(#61889f0a46)"><path fill="#1c73b7" d="M 31.035156 17.179688 L 35.148438 17.179688 L 35.148438 20.964844 L 38.933594 20.964844 L 38.933594 25.246094 L 35.148438 25.246094 L 35.148438 29.03125 L 30.867188 29.03125 L 30.867188 25.246094 L 27.082031 25.246094 L 27.082031 20.964844 L 30.867188 20.964844 L 30.867188 17.179688 Z M 34.8125 17.515625 L 31.207031 17.515625 L 31.207031 21.300781 L 27.421875 21.300781 L 27.421875 24.90625 L 31.207031 24.90625 L 31.207031 28.691406 L 34.8125 28.691406 L 34.8125 24.90625 L 38.597656 24.90625 L 38.597656 21.300781 L 34.8125 21.300781 Z M 34.8125 17.515625 " fill-opacity="1" fill-rule="nonzero"/></g><g clip-path="url(#eb8293784c)"><path fill="#1c73b7" d="M 40.851562 16.652344 L 42.617188 16.652344 L 42.617188 18.25 L 44.214844 18.25 L 44.214844 20.117188 L 42.617188 20.117188 L 42.617188 21.714844 L 40.75 21.714844 L 40.75 20.117188 L 39.152344 20.117188 L 39.152344 18.25 L 40.75 18.25 L 40.75 16.652344 Z M 42.414062 16.851562 L 40.953125 16.851562 L 40.953125 18.453125 L 39.351562 18.453125 L 39.351562 19.914062 L 40.953125 19.914062 L 40.953125 21.511719 L 42.414062 21.511719 L 42.414062 19.914062 L 44.011719 19.914062 L 44.011719 18.453125 L 42.414062 18.453125 Z M 42.414062 16.851562 " fill-opacity="1" fill-rule="nonzero"/></g><path fill="#1c73b7" d="M 40.234375 7.0625 L 41.925781 7.0625 L 41.925781 8.519531 L 43.382812 8.519531 L 43.382812 10.378906 L 41.925781 10.378906 L 41.925781 11.839844 L 40.066406 11.839844 L 40.066406 10.378906 L 38.609375 10.378906 L 38.609375 8.519531 L 40.066406 8.519531 L 40.066406 7.0625 Z M 41.589844 7.398438 L 40.40625 7.398438 L 40.40625 8.859375 L 38.945312 8.859375 L 38.945312 10.039062 L 40.40625 10.039062 L 40.40625 11.5 L 41.589844 11.5 L 41.589844 10.039062 L 43.046875 10.039062 L 43.046875 8.859375 L 41.589844 8.859375 Z M 41.589844 7.398438 " fill-opacity="1" fill-rule="nonzero"/><path fill="#1c73b7" d="M 26.089844 2.164062 L 27.546875 2.164062 L 27.546875 3.402344 L 28.785156 3.402344 L 28.785156 5.027344 L 27.546875 5.027344 L 27.546875 6.265625 L 25.921875 6.265625 L 25.921875 5.027344 L 24.683594 5.027344 L 24.683594 3.402344 L 25.921875 3.402344 L 25.921875 2.164062 Z M 27.210938 2.5 L 26.261719 2.5 L 26.261719 3.738281 L 25.023438 3.738281 L 25.023438 4.691406 L 26.261719 4.691406 L 26.261719 5.925781 L 27.210938 5.925781 L 27.210938 4.691406 L 28.449219 4.691406 L 28.449219 3.738281 L 27.210938 3.738281 Z M 27.210938 2.5 " fill-opacity="1" fill-rule="nonzero"/><path fill="#1c73b7" d="M 12.59375 23.246094 L 14.378906 23.246094 L 14.378906 24.867188 L 16 24.867188 L 16 26.753906 L 14.378906 26.753906 L 14.378906 28.375 L 12.492188 28.375 L 12.492188 26.753906 L 10.871094 26.753906 L 10.871094 24.867188 L 12.492188 24.867188 L 12.492188 23.246094 Z M 14.179688 23.449219 L 12.695312 23.449219 L 12.695312 25.066406 L 11.074219 25.066406 L 11.074219 26.550781 L 12.695312 26.550781 L 12.695312 28.171875 L 14.179688 28.171875 L 14.179688 26.550781 L 15.796875 26.550781 L 15.796875 25.066406 L 14.179688 25.066406 Z M 14.179688 23.449219 " fill-opacity="1" fill-rule="nonzero"/><path fill="#1c73b7" d="M 22.09375 22.664062 L 23.675781 22.664062 L 23.675781 24.023438 L 25.035156 24.023438 L 25.035156 25.777344 L 23.675781 25.777344 L 23.675781 27.136719 L 21.921875 27.136719 L 21.921875 25.777344 L 20.5625 25.777344 L 20.5625 24.023438 L 21.921875 24.023438 L 21.921875 22.664062 Z M 23.339844 23 L 22.261719 23 L 22.261719 24.359375 L 20.902344 24.359375 L 20.902344 25.4375 L 22.261719 25.4375 L 22.261719 26.800781 L 23.339844 26.800781 L 23.339844 25.4375 L 24.699219 25.4375 L 24.699219 24.359375 L 23.339844 24.359375 Z M 23.339844 23 " fill-opacity="1" fill-rule="nonzero"/><path fill="#1c73b7" d="M 10.402344 15.355469 L 12.273438 15.355469 L 12.273438 16.988281 L 13.90625 16.988281 L 13.90625 19.023438 L 12.273438 19.023438 L 12.273438 20.660156 L 10.234375 20.660156 L 10.234375 19.023438 L 8.601562 19.023438 L 8.601562 16.988281 L 10.234375 16.988281 L 10.234375 15.355469 L 10.40625 15.355469 Z M 11.933594 15.691406 L 10.570312 15.691406 L 10.570312 17.324219 L 8.9375 17.324219 L 8.9375 18.6875 L 10.570312 18.6875 L 10.570312 20.320312 L 11.933594 20.320312 L 11.933594 18.6875 L 13.570312 18.6875 L 13.570312 17.324219 L 11.933594 17.324219 Z M 11.933594 15.691406 " fill-opacity="1" fill-rule="nonzero"/><g clip-path="url(#8a23c22c09)"><path fill="#1c73b7" d="M 3.898438 22.730469 L 5.554688 22.730469 L 5.554688 24.226562 L 7.050781 24.226562 L 7.050781 25.984375 L 5.554688 25.984375 L 5.554688 27.480469 L 3.796875 27.480469 L 3.796875 25.984375 L 2.300781 25.984375 L 2.300781 24.226562 L 3.796875 24.226562 L 3.796875 22.730469 Z M 5.351562 22.929688 L 4 22.929688 L 4 24.425781 L 2.503906 24.425781 L 2.503906 25.78125 L 4 25.78125 L 4 27.277344 L 5.351562 27.277344 L 5.351562 25.78125 L 6.847656 25.78125 L 6.847656 24.425781 L 5.351562 24.425781 Z M 5.351562 22.929688 " fill-opacity="1" fill-rule="nonzero"/></g><path fill="#1c73b7" d="M 14.601562 9.015625 L 15.664062 9.015625 L 15.664062 9.941406 L 16.589844 9.941406 L 16.589844 11.105469 L 15.664062 11.105469 L 15.664062 12.027344 L 14.5 12.027344 L 14.5 11.105469 L 13.574219 11.105469 L 13.574219 9.941406 L 14.5 9.941406 L 14.5 9.015625 Z M 15.460938 9.21875 L 14.703125 9.21875 L 14.703125 10.140625 L 13.777344 10.140625 L 13.777344 10.902344 L 14.703125 10.902344 L 14.703125 11.828125 L 15.460938 11.828125 L 15.460938 10.902344 L 16.386719 10.902344 L 16.386719 10.140625 L 15.460938 10.140625 Z M 15.460938 9.21875 " fill-opacity="1" fill-rule="nonzero"/><path fill="#1c73b7" d="M 34.878906 0 L 37.371094 0 L 37.371094 2.296875 L 39.664062 2.296875 L 39.664062 4.886719 L 37.371094 4.886719 L 37.371094 7.179688 L 34.777344 7.179688 L 34.777344 4.886719 L 32.484375 4.886719 L 32.484375 2.296875 L 34.777344 2.296875 L 34.777344 0 Z M 37.167969 0.203125 L 34.984375 0.203125 L 34.984375 2.496094 L 32.6875 2.496094 L 32.6875 4.683594 L 34.984375 4.683594 L 34.984375 6.980469 L 37.167969 6.980469 L 37.167969 4.683594 L 39.464844 4.683594 L 39.464844 2.496094 L 37.167969 2.496094 Z M 37.167969 0.203125 " fill-opacity="1" fill-rule="nonzero"/></svg>