<svg xmlns="http://www.w3.org/2000/svg" xmlns:xlink="http://www.w3.org/1999/xlink" width="80" zoomAndPan="magnify" viewBox="0 0 60 60" height="80" preserveAspectRatio="xMidYMid meet" version="1.0"><defs><clipPath id="72e52a1e2f"><path d="M 2.449219 2.449219 L 5 2.449219 L 5 5 L 2.449219 5 Z M 2.449219 2.449219 " clip-rule="nonzero"/></clipPath><clipPath id="2285802f40"><path d="M 8 2.449219 L 11 2.449219 L 11 5 L 8 5 Z M 8 2.449219 " clip-rule="nonzero"/></clipPath><clipPath id="abb5a6a52a"><path d="M 14 2.449219 L 16 2.449219 L 16 5 L 14 5 Z M 14 2.449219 " clip-rule="nonzero"/></clipPath><clipPath id="23f228dc06"><path d="M 20 2.449219 L 22 2.449219 L 22 5 L 20 5 Z M 20 2.449219 " clip-rule="nonzero"/></clipPath><clipPath id="30bcefb38c"><path d="M 26 2.449219 L 28 2.449219 L 28 5 L 26 5 Z M 26 2.449219 " clip-rule="nonzero"/></clipPath><clipPath id="ed4853acc6"><path d="M 32 2.449219 L 34 2.449219 L 34 5 L 32 5 Z M 32 2.449219 " clip-rule="nonzero"/></clipPath><clipPath id="2d135e1132"><path d="M 38 2.449219 L 40 2.449219 L 40 5 L 38 5 Z M 38 2.449219 " clip-rule="nonzero"/></clipPath><clipPath id="9792a66d0d"><path d="M 44 2.449219 L 46 2.449219 L 46 5 L 44 5 Z M 44 2.449219 " clip-rule="nonzero"/></clipPath><clipPath id="4015ec28d8"><path d="M 49 2.449219 L 52 2.449219 L 52 5 L 49 5 Z M 49 2.449219 " clip-rule="nonzero"/></clipPath><clipPath id="58ec8b00aa"><path d="M 55 2.449219 L 57.199219 2.449219 L 57.199219 5 L 55 5 Z M 55 2.449219 " clip-rule="nonzero"/></clipPath><clipPath id="2af1399f87"><path d="M 2.449219 7 L 5 7 L 5 9 L 2.449219 9 Z M 2.449219 7 " clip-rule="nonzero"/></clipPath><clipPath id="705abd4185"><path d="M 55 7 L 57.199219 7 L 57.199219 9 L 55 9 Z M 55 7 " clip-rule="nonzero"/></clipPath><clipPath id="f3353f4288"><path d="M 2.449219 12 L 5 12 L 5 14 L 2.449219 14 Z M 2.449219 12 " clip-rule="nonzero"/></clipPath><clipPath id="1bdade38ff"><path d="M 55 12 L 57.199219 12 L 57.199219 14 L 55 14 Z M 55 12 " clip-rule="nonzero"/></clipPath><clipPath id="61f2f45b64"><path d="M 2.449219 17 L 5 17 L 5 19 L 2.449219 19 Z M 2.449219 17 " clip-rule="nonzero"/></clipPath><clipPath id="f977a2151f"><path d="M 55 17 L 57.199219 17 L 57.199219 19 L 55 19 Z M 55 17 " clip-rule="nonzero"/></clipPath><clipPath id="c5962c6312"><path d="M 2.449219 21 L 5 21 L 5 24 L 2.449219 24 Z M 2.449219 21 " clip-rule="nonzero"/></clipPath><clipPath id="f17beba730"><path d="M 55 21 L 57.199219 21 L 57.199219 24 L 55 24 Z M 55 21 " clip-rule="nonzero"/></clipPath><clipPath id="2000b527ae"><path d="M 2.449219 26 L 5 26 L 5 29 L 2.449219 29 Z M 2.449219 26 " clip-rule="nonzero"/></clipPath><clipPath id="7bb4640456"><path d="M 55 26 L 57.199219 26 L 57.199219 29 L 55 29 Z M 55 26 " clip-rule="nonzero"/></clipPath><clipPath id="700167bff0"><path d="M 2.449219 31 L 5 31 L 5 34 L 2.449219 34 Z M 2.449219 31 " clip-rule="nonzero"/></clipPath><clipPath id="c5fb651874"><path d="M 55 31 L 57.199219 31 L 57.199219 34 L 55 34 Z M 55 31 " clip-rule="nonzero"/></clipPath><clipPath id="e97526e377"><path d="M 2.449219 36 L 5 36 L 5 39 L 2.449219 39 Z M 2.449219 36 " clip-rule="nonzero"/></clipPath><clipPath id="b9ead4147b"><path d="M 55 36 L 57.199219 36 L 57.199219 39 L 55 39 Z M 55 36 " clip-rule="nonzero"/></clipPath><clipPath id="fdfbdbc7f2"><path d="M 2.449219 41 L 5 41 L 5 43 L 2.449219 43 Z M 2.449219 41 " clip-rule="nonzero"/></clipPath><clipPath id="5f4a8ea140"><path d="M 55 41 L 57.199219 41 L 57.199219 43 L 55 43 Z M 55 41 " clip-rule="nonzero"/></clipPath><clipPath id="e71e96a803"><path d="M 2.449219 46 L 5 46 L 5 48 L 2.449219 48 Z M 2.449219 46 " clip-rule="nonzero"/></clipPath><clipPath id="6452ac3cfa"><path d="M 55 46 L 57.199219 46 L 57.199219 48 L 55 48 Z M 55 46 " clip-rule="nonzero"/></clipPath><clipPath id="605283e0cc"><path d="M 2.449219 51 L 5 51 L 5 53 L 2.449219 53 Z M 2.449219 51 " clip-rule="nonzero"/></clipPath><clipPath id="dbeaf6bc83"><path d="M 55 51 L 57.199219 51 L 57.199219 53 L 55 53 Z M 55 51 " clip-rule="nonzero"/></clipPath><clipPath id="370f7c87a7"><path d="M 2.449219 55 L 5 55 L 5 57.199219 L 2.449219 57.199219 Z M 2.449219 55 " clip-rule="nonzero"/></clipPath><clipPath id="61f652e9ea"><path d="M 8 55 L 11 55 L 11 57.199219 L 8 57.199219 Z M 8 55 " clip-rule="nonzero"/></clipPath><clipPath id="2ca4238c02"><path d="M 14 55 L 16 55 L 16 57.199219 L 14 57.199219 Z M 14 55 " clip-rule="nonzero"/></clipPath><clipPath id="62c5799364"><path d="M 20 55 L 22 55 L 22 57.199219 L 20 57.199219 Z M 20 55 " clip-rule="nonzero"/></clipPath><clipPath id="764f393298"><path d="M 26 55 L 28 55 L 28 57.199219 L 26 57.199219 Z M 26 55 " clip-rule="nonzero"/></clipPath><clipPath id="24fcd0f98c"><path d="M 32 55 L 34 55 L 34 57.199219 L 32 57.199219 Z M 32 55 " clip-rule="nonzero"/></clipPath><clipPath id="b335fa7988"><path d="M 38 55 L 40 55 L 40 57.199219 L 38 57.199219 Z M 38 55 " clip-rule="nonzero"/></clipPath><clipPath id="0084e94e61"><path d="M 44 55 L 46 55 L 46 57.199219 L 44 57.199219 Z M 44 55 " clip-rule="nonzero"/></clipPath><clipPath id="d75e486b35"><path d="M 49 55 L 52 55 L 52 57.199219 L 49 57.199219 Z M 49 55 " clip-rule="nonzero"/></clipPath><clipPath id="c99f39c358"><path d="M 55 55 L 57.199219 55 L 57.199219 57.199219 L 55 57.199219 Z M 55 55 " clip-rule="nonzero"/></clipPath></defs><g clip-path="url(#72e52a1e2f)"><path fill="#1c73b7" d="M 4.101562 3.273438 C 4.101562 3.503906 4.019531 3.695312 3.859375 3.859375 C 3.695312 4.019531 3.503906 4.101562 3.273438 4.101562 C 3.046875 4.101562 2.851562 4.019531 2.6875 3.859375 C 2.527344 3.695312 2.449219 3.503906 2.449219 3.273438 C 2.449219 3.046875 2.527344 2.851562 2.6875 2.6875 C 2.851562 2.527344 3.046875 2.449219 3.273438 2.449219 C 3.503906 2.449219 3.695312 2.527344 3.859375 2.6875 C 4.019531 2.851562 4.101562 3.046875 4.101562 3.273438 Z M 4.101562 3.273438 " fill-opacity="1" fill-rule="nonzero"/></g><g clip-path="url(#2285802f40)"><path fill="#1c73b7" d="M 10.039062 3.273438 C 10.039062 3.503906 9.957031 3.695312 9.796875 3.859375 C 9.636719 4.019531 9.441406 4.101562 9.210938 4.101562 C 8.984375 4.101562 8.789062 4.019531 8.628906 3.859375 C 8.464844 3.695312 8.386719 3.503906 8.386719 3.273438 C 8.386719 3.046875 8.464844 2.851562 8.628906 2.6875 C 8.789062 2.527344 8.984375 2.449219 9.210938 2.449219 C 9.441406 2.449219 9.636719 2.527344 9.796875 2.6875 C 9.957031 2.851562 10.039062 3.046875 10.039062 3.273438 Z M 10.039062 3.273438 " fill-opacity="1" fill-rule="nonzero"/></g><g clip-path="url(#abb5a6a52a)"><path fill="#1c73b7" d="M 15.976562 3.273438 C 15.976562 3.503906 15.898438 3.695312 15.734375 3.859375 C 15.574219 4.019531 15.378906 4.101562 15.152344 4.101562 C 14.921875 4.101562 14.726562 4.019531 14.566406 3.859375 C 14.40625 3.695312 14.324219 3.503906 14.324219 3.273438 C 14.324219 3.046875 14.40625 2.851562 14.566406 2.6875 C 14.726562 2.527344 14.921875 2.449219 15.152344 2.449219 C 15.378906 2.449219 15.574219 2.527344 15.734375 2.6875 C 15.898438 2.851562 15.976562 3.046875 15.976562 3.273438 Z M 15.976562 3.273438 " fill-opacity="1" fill-rule="nonzero"/></g><g clip-path="url(#23f228dc06)"><path fill="#1c73b7" d="M 21.917969 3.273438 C 21.917969 3.503906 21.835938 3.695312 21.675781 3.859375 C 21.511719 4.019531 21.316406 4.101562 21.089844 4.101562 C 20.863281 4.101562 20.667969 4.019531 20.503906 3.859375 C 20.34375 3.695312 20.261719 3.503906 20.261719 3.273438 C 20.261719 3.046875 20.34375 2.851562 20.503906 2.6875 C 20.667969 2.527344 20.863281 2.449219 21.089844 2.449219 C 21.316406 2.449219 21.511719 2.527344 21.675781 2.6875 C 21.835938 2.851562 21.917969 3.046875 21.917969 3.273438 Z M 21.917969 3.273438 " fill-opacity="1" fill-rule="nonzero"/></g><g clip-path="url(#30bcefb38c)"><path fill="#1c73b7" d="M 27.855469 3.273438 C 27.855469 3.503906 27.773438 3.695312 27.613281 3.859375 C 27.453125 4.019531 27.257812 4.101562 27.027344 4.101562 C 26.800781 4.101562 26.605469 4.019531 26.445312 3.859375 C 26.28125 3.695312 26.203125 3.503906 26.203125 3.273438 C 26.203125 3.046875 26.28125 2.851562 26.445312 2.6875 C 26.605469 2.527344 26.800781 2.449219 27.027344 2.449219 C 27.257812 2.449219 27.453125 2.527344 27.613281 2.6875 C 27.773438 2.851562 27.855469 3.046875 27.855469 3.273438 Z M 27.855469 3.273438 " fill-opacity="1" fill-rule="nonzero"/></g><g clip-path="url(#ed4853acc6)"><path fill="#1c73b7" d="M 33.792969 3.273438 C 33.792969 3.503906 33.714844 3.695312 33.550781 3.859375 C 33.390625 4.019531 33.195312 4.101562 32.96875 4.101562 C 32.738281 4.101562 32.542969 4.019531 32.382812 3.859375 C 32.222656 3.695312 32.140625 3.503906 32.140625 3.273438 C 32.140625 3.046875 32.222656 2.851562 32.382812 2.6875 C 32.542969 2.527344 32.738281 2.449219 32.96875 2.449219 C 33.195312 2.449219 33.390625 2.527344 33.550781 2.6875 C 33.714844 2.851562 33.792969 3.046875 33.792969 3.273438 Z M 33.792969 3.273438 " fill-opacity="1" fill-rule="nonzero"/></g><g clip-path="url(#2d135e1132)"><path fill="#1c73b7" d="M 39.734375 3.273438 C 39.734375 3.503906 39.652344 3.695312 39.492188 3.859375 C 39.328125 4.019531 39.132812 4.101562 38.90625 4.101562 C 38.679688 4.101562 38.484375 4.019531 38.320312 3.859375 C 38.160156 3.695312 38.078125 3.503906 38.078125 3.273438 C 38.078125 3.046875 38.160156 2.851562 38.320312 2.6875 C 38.484375 2.527344 38.679688 2.449219 38.90625 2.449219 C 39.132812 2.449219 39.328125 2.527344 39.492188 2.6875 C 39.652344 2.851562 39.734375 3.046875 39.734375 3.273438 Z M 39.734375 3.273438 " fill-opacity="1" fill-rule="nonzero"/></g><g clip-path="url(#9792a66d0d)"><path fill="#1c73b7" d="M 45.671875 3.273438 C 45.671875 3.503906 45.589844 3.695312 45.429688 3.859375 C 45.269531 4.019531 45.074219 4.101562 44.84375 4.101562 C 44.617188 4.101562 44.421875 4.019531 44.261719 3.859375 C 44.097656 3.695312 44.019531 3.503906 44.019531 3.273438 C 44.019531 3.046875 44.097656 2.851562 44.261719 2.6875 C 44.421875 2.527344 44.617188 2.449219 44.84375 2.449219 C 45.074219 2.449219 45.269531 2.527344 45.429688 2.6875 C 45.589844 2.851562 45.671875 3.046875 45.671875 3.273438 Z M 45.671875 3.273438 " fill-opacity="1" fill-rule="nonzero"/></g><g clip-path="url(#4015ec28d8)"><path fill="#1c73b7" d="M 51.609375 3.273438 C 51.609375 3.503906 51.53125 3.695312 51.367188 3.859375 C 51.207031 4.019531 51.011719 4.101562 50.785156 4.101562 C 50.554688 4.101562 50.359375 4.019531 50.199219 3.859375 C 50.039062 3.695312 49.957031 3.503906 49.957031 3.273438 C 49.957031 3.046875 50.039062 2.851562 50.199219 2.6875 C 50.359375 2.527344 50.554688 2.449219 50.785156 2.449219 C 51.011719 2.449219 51.207031 2.527344 51.367188 2.6875 C 51.53125 2.851562 51.609375 3.046875 51.609375 3.273438 Z M 51.609375 3.273438 " fill-opacity="1" fill-rule="nonzero"/></g><g clip-path="url(#58ec8b00aa)"><path fill="#1c73b7" d="M 57.550781 3.273438 C 57.550781 3.503906 57.46875 3.695312 57.308594 3.859375 C 57.144531 4.019531 56.949219 4.101562 56.722656 4.101562 C 56.496094 4.101562 56.300781 4.019531 56.136719 3.859375 C 55.976562 3.695312 55.894531 3.503906 55.894531 3.273438 C 55.894531 3.046875 55.976562 2.851562 56.136719 2.6875 C 56.300781 2.527344 56.496094 2.449219 56.722656 2.449219 C 56.949219 2.449219 57.144531 2.527344 57.308594 2.6875 C 57.46875 2.851562 57.550781 3.046875 57.550781 3.273438 Z M 57.550781 3.273438 " fill-opacity="1" fill-rule="nonzero"/></g><g clip-path="url(#2af1399f87)"><path fill="#1c73b7" d="M 4.101562 8.132812 C 4.101562 8.359375 4.019531 8.554688 3.859375 8.71875 C 3.695312 8.878906 3.503906 8.960938 3.273438 8.960938 C 3.046875 8.960938 2.851562 8.878906 2.6875 8.71875 C 2.527344 8.554688 2.449219 8.359375 2.449219 8.132812 C 2.449219 7.90625 2.527344 7.710938 2.6875 7.546875 C 2.851562 7.386719 3.046875 7.304688 3.273438 7.304688 C 3.503906 7.304688 3.695312 7.386719 3.859375 7.546875 C 4.019531 7.710938 4.101562 7.90625 4.101562 8.132812 Z M 4.101562 8.132812 " fill-opacity="1" fill-rule="nonzero"/></g><path fill="#1c73b7" d="M 10.039062 8.132812 C 10.039062 8.359375 9.957031 8.554688 9.796875 8.71875 C 9.636719 8.878906 9.441406 8.960938 9.210938 8.960938 C 8.984375 8.960938 8.789062 8.878906 8.628906 8.71875 C 8.464844 8.554688 8.386719 8.359375 8.386719 8.132812 C 8.386719 7.90625 8.464844 7.710938 8.628906 7.546875 C 8.789062 7.386719 8.984375 7.304688 9.210938 7.304688 C 9.441406 7.304688 9.636719 7.386719 9.796875 7.546875 C 9.957031 7.710938 10.039062 7.90625 10.039062 8.132812 Z M 10.039062 8.132812 " fill-opacity="1" fill-rule="nonzero"/><path fill="#1c73b7" d="M 15.976562 8.132812 C 15.976562 8.359375 15.898438 8.554688 15.734375 8.71875 C 15.574219 8.878906 15.378906 8.960938 15.152344 8.960938 C 14.921875 8.960938 14.726562 8.878906 14.566406 8.71875 C 14.40625 8.554688 14.324219 8.359375 14.324219 8.132812 C 14.324219 7.90625 14.40625 7.710938 14.566406 7.546875 C 14.726562 7.386719 14.921875 7.304688 15.152344 7.304688 C 15.378906 7.304688 15.574219 7.386719 15.734375 7.546875 C 15.898438 7.710938 15.976562 7.90625 15.976562 8.132812 Z M 15.976562 8.132812 " fill-opacity="1" fill-rule="nonzero"/><path fill="#1c73b7" d="M 21.917969 8.132812 C 21.917969 8.359375 21.835938 8.554688 21.675781 8.71875 C 21.511719 8.878906 21.316406 8.960938 21.089844 8.960938 C 20.863281 8.960938 20.667969 8.878906 20.503906 8.71875 C 20.34375 8.554688 20.261719 8.359375 20.261719 8.132812 C 20.261719 7.90625 20.34375 7.710938 20.503906 7.546875 C 20.667969 7.386719 20.863281 7.304688 21.089844 7.304688 C 21.316406 7.304688 21.511719 7.386719 21.675781 7.546875 C 21.835938 7.710938 21.917969 7.90625 21.917969 8.132812 Z M 21.917969 8.132812 " fill-opacity="1" fill-rule="nonzero"/><path fill="#1c73b7" d="M 27.855469 8.132812 C 27.855469 8.359375 27.773438 8.554688 27.613281 8.71875 C 27.453125 8.878906 27.257812 8.960938 27.027344 8.960938 C 26.800781 8.960938 26.605469 8.878906 26.445312 8.71875 C 26.28125 8.554688 26.203125 8.359375 26.203125 8.132812 C 26.203125 7.90625 26.28125 7.710938 26.445312 7.546875 C 26.605469 7.386719 26.800781 7.304688 27.027344 7.304688 C 27.257812 7.304688 27.453125 7.386719 27.613281 7.546875 C 27.773438 7.710938 27.855469 7.90625 27.855469 8.132812 Z M 27.855469 8.132812 " fill-opacity="1" fill-rule="nonzero"/><path fill="#1c73b7" d="M 33.792969 8.132812 C 33.792969 8.359375 33.714844 8.554688 33.550781 8.71875 C 33.390625 8.878906 33.195312 8.960938 32.96875 8.960938 C 32.738281 8.960938 32.542969 8.878906 32.382812 8.71875 C 32.222656 8.554688 32.140625 8.359375 32.140625 8.132812 C 32.140625 7.90625 32.222656 7.710938 32.382812 7.546875 C 32.542969 7.386719 32.738281 7.304688 32.96875 7.304688 C 33.195312 7.304688 33.390625 7.386719 33.550781 7.546875 C 33.714844 7.710938 33.792969 7.90625 33.792969 8.132812 Z M 33.792969 8.132812 " fill-opacity="1" fill-rule="nonzero"/><path fill="#1c73b7" d="M 39.734375 8.132812 C 39.734375 8.359375 39.652344 8.554688 39.492188 8.71875 C 39.328125 8.878906 39.132812 8.960938 38.90625 8.960938 C 38.679688 8.960938 38.484375 8.878906 38.320312 8.71875 C 38.160156 8.554688 38.078125 8.359375 38.078125 8.132812 C 38.078125 7.90625 38.160156 7.710938 38.320312 7.546875 C 38.484375 7.386719 38.679688 7.304688 38.90625 7.304688 C 39.132812 7.304688 39.328125 7.386719 39.492188 7.546875 C 39.652344 7.710938 39.734375 7.90625 39.734375 8.132812 Z M 39.734375 8.132812 " fill-opacity="1" fill-rule="nonzero"/><path fill="#1c73b7" d="M 45.671875 8.132812 C 45.671875 8.359375 45.589844 8.554688 45.429688 8.71875 C 45.269531 8.878906 45.074219 8.960938 44.84375 8.960938 C 44.617188 8.960938 44.421875 8.878906 44.261719 8.71875 C 44.097656 8.554688 44.019531 8.359375 44.019531 8.132812 C 44.019531 7.90625 44.097656 7.710938 44.261719 7.546875 C 44.421875 7.386719 44.617188 7.304688 44.84375 7.304688 C 45.074219 7.304688 45.269531 7.386719 45.429688 7.546875 C 45.589844 7.710938 45.671875 7.90625 45.671875 8.132812 Z M 45.671875 8.132812 " fill-opacity="1" fill-rule="nonzero"/><path fill="#1c73b7" d="M 51.609375 8.132812 C 51.609375 8.359375 51.53125 8.554688 51.367188 8.71875 C 51.207031 8.878906 51.011719 8.960938 50.785156 8.960938 C 50.554688 8.960938 50.359375 8.878906 50.199219 8.71875 C 50.039062 8.554688 49.957031 8.359375 49.957031 8.132812 C 49.957031 7.90625 50.039062 7.710938 50.199219 7.546875 C 50.359375 7.386719 50.554688 7.304688 50.785156 7.304688 C 51.011719 7.304688 51.207031 7.386719 51.367188 7.546875 C 51.53125 7.710938 51.609375 7.90625 51.609375 8.132812 Z M 51.609375 8.132812 " fill-opacity="1" fill-rule="nonzero"/><g clip-path="url(#705abd4185)"><path fill="#1c73b7" d="M 57.550781 8.132812 C 57.550781 8.359375 57.46875 8.554688 57.308594 8.71875 C 57.144531 8.878906 56.949219 8.960938 56.722656 8.960938 C 56.496094 8.960938 56.300781 8.878906 56.136719 8.71875 C 55.976562 8.554688 55.894531 8.359375 55.894531 8.132812 C 55.894531 7.90625 55.976562 7.710938 56.136719 7.546875 C 56.300781 7.386719 56.496094 7.304688 56.722656 7.304688 C 56.949219 7.304688 57.144531 7.386719 57.308594 7.546875 C 57.46875 7.710938 57.550781 7.90625 57.550781 8.132812 Z M 57.550781 8.132812 " fill-opacity="1" fill-rule="nonzero"/></g><g clip-path="url(#f3353f4288)"><path fill="#1c73b7" d="M 4.101562 12.992188 C 4.101562 13.21875 4.019531 13.414062 3.859375 13.578125 C 3.695312 13.738281 3.503906 13.816406 3.273438 13.816406 C 3.046875 13.816406 2.851562 13.738281 2.6875 13.578125 C 2.527344 13.414062 2.449219 13.21875 2.449219 12.992188 C 2.449219 12.761719 2.527344 12.570312 2.6875 12.40625 C 2.851562 12.246094 3.046875 12.164062 3.273438 12.164062 C 3.503906 12.164062 3.695312 12.246094 3.859375 12.40625 C 4.019531 12.570312 4.101562 12.761719 4.101562 12.992188 Z M 4.101562 12.992188 " fill-opacity="1" fill-rule="nonzero"/></g><path fill="#1c73b7" d="M 10.039062 12.992188 C 10.039062 13.21875 9.957031 13.414062 9.796875 13.578125 C 9.636719 13.738281 9.441406 13.816406 9.210938 13.816406 C 8.984375 13.816406 8.789062 13.738281 8.628906 13.578125 C 8.464844 13.414062 8.386719 13.21875 8.386719 12.992188 C 8.386719 12.761719 8.464844 12.570312 8.628906 12.40625 C 8.789062 12.246094 8.984375 12.164062 9.210938 12.164062 C 9.441406 12.164062 9.636719 12.246094 9.796875 12.40625 C 9.957031 12.570312 10.039062 12.761719 10.039062 12.992188 Z M 10.039062 12.992188 " fill-opacity="1" fill-rule="nonzero"/><path fill="#1c73b7" d="M 15.976562 12.992188 C 15.976562 13.21875 15.898438 13.414062 15.734375 13.578125 C 15.574219 13.738281 15.378906 13.816406 15.152344 13.816406 C 14.921875 13.816406 14.726562 13.738281 14.566406 13.578125 C 14.40625 13.414062 14.324219 13.21875 14.324219 12.992188 C 14.324219 12.761719 14.40625 12.570312 14.566406 12.40625 C 14.726562 12.246094 14.921875 12.164062 15.152344 12.164062 C 15.378906 12.164062 15.574219 12.246094 15.734375 12.40625 C 15.898438 12.570312 15.976562 12.761719 15.976562 12.992188 Z M 15.976562 12.992188 " fill-opacity="1" fill-rule="nonzero"/><path fill="#1c73b7" d="M 21.917969 12.992188 C 21.917969 13.21875 21.835938 13.414062 21.675781 13.578125 C 21.511719 13.738281 21.316406 13.816406 21.089844 13.816406 C 20.863281 13.816406 20.667969 13.738281 20.503906 13.578125 C 20.34375 13.414062 20.261719 13.21875 20.261719 12.992188 C 20.261719 12.761719 20.34375 12.570312 20.503906 12.40625 C 20.667969 12.246094 20.863281 12.164062 21.089844 12.164062 C 21.316406 12.164062 21.511719 12.246094 21.675781 12.40625 C 21.835938 12.570312 21.917969 12.761719 21.917969 12.992188 Z M 21.917969 12.992188 " fill-opacity="1" fill-rule="nonzero"/><path fill="#1c73b7" d="M 27.855469 12.992188 C 27.855469 13.21875 27.773438 13.414062 27.613281 13.578125 C 27.453125 13.738281 27.257812 13.816406 27.027344 13.816406 C 26.800781 13.816406 26.605469 13.738281 26.445312 13.578125 C 26.28125 13.414062 26.203125 13.21875 26.203125 12.992188 C 26.203125 12.761719 26.28125 12.570312 26.445312 12.40625 C 26.605469 12.246094 26.800781 12.164062 27.027344 12.164062 C 27.257812 12.164062 27.453125 12.246094 27.613281 12.40625 C 27.773438 12.570312 27.855469 12.761719 27.855469 12.992188 Z M 27.855469 12.992188 " fill-opacity="1" fill-rule="nonzero"/><path fill="#1c73b7" d="M 33.792969 12.992188 C 33.792969 13.21875 33.714844 13.414062 33.550781 13.578125 C 33.390625 13.738281 33.195312 13.816406 32.96875 13.816406 C 32.738281 13.816406 32.542969 13.738281 32.382812 13.578125 C 32.222656 13.414062 32.140625 13.21875 32.140625 12.992188 C 32.140625 12.761719 32.222656 12.570312 32.382812 12.40625 C 32.542969 12.246094 32.738281 12.164062 32.96875 12.164062 C 33.195312 12.164062 33.390625 12.246094 33.550781 12.40625 C 33.714844 12.570312 33.792969 12.761719 33.792969 12.992188 Z M 33.792969 12.992188 " fill-opacity="1" fill-rule="nonzero"/><path fill="#1c73b7" d="M 39.734375 12.992188 C 39.734375 13.21875 39.652344 13.414062 39.492188 13.578125 C 39.328125 13.738281 39.132812 13.816406 38.90625 13.816406 C 38.679688 13.816406 38.484375 13.738281 38.320312 13.578125 C 38.160156 13.414062 38.078125 13.21875 38.078125 12.992188 C 38.078125 12.761719 38.160156 12.570312 38.320312 12.40625 C 38.484375 12.246094 38.679688 12.164062 38.90625 12.164062 C 39.132812 12.164062 39.328125 12.246094 39.492188 12.40625 C 39.652344 12.570312 39.734375 12.761719 39.734375 12.992188 Z M 39.734375 12.992188 " fill-opacity="1" fill-rule="nonzero"/><path fill="#1c73b7" d="M 45.671875 12.992188 C 45.671875 13.21875 45.589844 13.414062 45.429688 13.578125 C 45.269531 13.738281 45.074219 13.816406 44.84375 13.816406 C 44.617188 13.816406 44.421875 13.738281 44.261719 13.578125 C 44.097656 13.414062 44.019531 13.21875 44.019531 12.992188 C 44.019531 12.761719 44.097656 12.570312 44.261719 12.40625 C 44.421875 12.246094 44.617188 12.164062 44.84375 12.164062 C 45.074219 12.164062 45.269531 12.246094 45.429688 12.40625 C 45.589844 12.570312 45.671875 12.761719 45.671875 12.992188 Z M 45.671875 12.992188 " fill-opacity="1" fill-rule="nonzero"/><path fill="#1c73b7" d="M 51.609375 12.992188 C 51.609375 13.21875 51.53125 13.414062 51.367188 13.578125 C 51.207031 13.738281 51.011719 13.816406 50.785156 13.816406 C 50.554688 13.816406 50.359375 13.738281 50.199219 13.578125 C 50.039062 13.414062 49.957031 13.21875 49.957031 12.992188 C 49.957031 12.761719 50.039062 12.570312 50.199219 12.40625 C 50.359375 12.246094 50.554688 12.164062 50.785156 12.164062 C 51.011719 12.164062 51.207031 12.246094 51.367188 12.40625 C 51.53125 12.570312 51.609375 12.761719 51.609375 12.992188 Z M 51.609375 12.992188 " fill-opacity="1" fill-rule="nonzero"/><g clip-path="url(#1bdade38ff)"><path fill="#1c73b7" d="M 57.550781 12.992188 C 57.550781 13.21875 57.46875 13.414062 57.308594 13.578125 C 57.144531 13.738281 56.949219 13.816406 56.722656 13.816406 C 56.496094 13.816406 56.300781 13.738281 56.136719 13.578125 C 55.976562 13.414062 55.894531 13.21875 55.894531 12.992188 C 55.894531 12.761719 55.976562 12.570312 56.136719 12.40625 C 56.300781 12.246094 56.496094 12.164062 56.722656 12.164062 C 56.949219 12.164062 57.144531 12.246094 57.308594 12.40625 C 57.46875 12.570312 57.550781 12.761719 57.550781 12.992188 Z M 57.550781 12.992188 " fill-opacity="1" fill-rule="nonzero"/></g><g clip-path="url(#61f2f45b64)"><path fill="#1c73b7" d="M 4.101562 17.851562 C 4.101562 18.078125 4.019531 18.273438 3.859375 18.433594 C 3.695312 18.597656 3.503906 18.675781 3.273438 18.675781 C 3.046875 18.675781 2.851562 18.597656 2.6875 18.433594 C 2.527344 18.273438 2.449219 18.078125 2.449219 17.851562 C 2.449219 17.621094 2.527344 17.425781 2.6875 17.265625 C 2.851562 17.105469 3.046875 17.023438 3.273438 17.023438 C 3.503906 17.023438 3.695312 17.105469 3.859375 17.265625 C 4.019531 17.425781 4.101562 17.621094 4.101562 17.851562 Z M 4.101562 17.851562 " fill-opacity="1" fill-rule="nonzero"/></g><path fill="#1c73b7" d="M 10.039062 17.851562 C 10.039062 18.078125 9.957031 18.273438 9.796875 18.433594 C 9.636719 18.597656 9.441406 18.675781 9.210938 18.675781 C 8.984375 18.675781 8.789062 18.597656 8.628906 18.433594 C 8.464844 18.273438 8.386719 18.078125 8.386719 17.851562 C 8.386719 17.621094 8.464844 17.425781 8.628906 17.265625 C 8.789062 17.105469 8.984375 17.023438 9.210938 17.023438 C 9.441406 17.023438 9.636719 17.105469 9.796875 17.265625 C 9.957031 17.425781 10.039062 17.621094 10.039062 17.851562 Z M 10.039062 17.851562 " fill-opacity="1" fill-rule="nonzero"/><path fill="#1c73b7" d="M 15.976562 17.851562 C 15.976562 18.078125 15.898438 18.273438 15.734375 18.433594 C 15.574219 18.597656 15.378906 18.675781 15.152344 18.675781 C 14.921875 18.675781 14.726562 18.597656 14.566406 18.433594 C 14.40625 18.273438 14.324219 18.078125 14.324219 17.851562 C 14.324219 17.621094 14.40625 17.425781 14.566406 17.265625 C 14.726562 17.105469 14.921875 17.023438 15.152344 17.023438 C 15.378906 17.023438 15.574219 17.105469 15.734375 17.265625 C 15.898438 17.425781 15.976562 17.621094 15.976562 17.851562 Z M 15.976562 17.851562 " fill-opacity="1" fill-rule="nonzero"/><path fill="#1c73b7" d="M 21.917969 17.851562 C 21.917969 18.078125 21.835938 18.273438 21.675781 18.433594 C 21.511719 18.597656 21.316406 18.675781 21.089844 18.675781 C 20.863281 18.675781 20.667969 18.597656 20.503906 18.433594 C 20.34375 18.273438 20.261719 18.078125 20.261719 17.851562 C 20.261719 17.621094 20.34375 17.425781 20.503906 17.265625 C 20.667969 17.105469 20.863281 17.023438 21.089844 17.023438 C 21.316406 17.023438 21.511719 17.105469 21.675781 17.265625 C 21.835938 17.425781 21.917969 17.621094 21.917969 17.851562 Z M 21.917969 17.851562 " fill-opacity="1" fill-rule="nonzero"/><path fill="#1c73b7" d="M 27.855469 17.851562 C 27.855469 18.078125 27.773438 18.273438 27.613281 18.433594 C 27.453125 18.597656 27.257812 18.675781 27.027344 18.675781 C 26.800781 18.675781 26.605469 18.597656 26.445312 18.433594 C 26.28125 18.273438 26.203125 18.078125 26.203125 17.851562 C 26.203125 17.621094 26.28125 17.425781 26.445312 17.265625 C 26.605469 17.105469 26.800781 17.023438 27.027344 17.023438 C 27.257812 17.023438 27.453125 17.105469 27.613281 17.265625 C 27.773438 17.425781 27.855469 17.621094 27.855469 17.851562 Z M 27.855469 17.851562 " fill-opacity="1" fill-rule="nonzero"/><path fill="#1c73b7" d="M 33.792969 17.851562 C 33.792969 18.078125 33.714844 18.273438 33.550781 18.433594 C 33.390625 18.597656 33.195312 18.675781 32.96875 18.675781 C 32.738281 18.675781 32.542969 18.597656 32.382812 18.433594 C 32.222656 18.273438 32.140625 18.078125 32.140625 17.851562 C 32.140625 17.621094 32.222656 17.425781 32.382812 17.265625 C 32.542969 17.105469 32.738281 17.023438 32.96875 17.023438 C 33.195312 17.023438 33.390625 17.105469 33.550781 17.265625 C 33.714844 17.425781 33.792969 17.621094 33.792969 17.851562 Z M 33.792969 17.851562 " fill-opacity="1" fill-rule="nonzero"/><path fill="#1c73b7" d="M 39.734375 17.851562 C 39.734375 18.078125 39.652344 18.273438 39.492188 18.433594 C 39.328125 18.597656 39.132812 18.675781 38.90625 18.675781 C 38.679688 18.675781 38.484375 18.597656 38.320312 18.433594 C 38.160156 18.273438 38.078125 18.078125 38.078125 17.851562 C 38.078125 17.621094 38.160156 17.425781 38.320312 17.265625 C 38.484375 17.105469 38.679688 17.023438 38.90625 17.023438 C 39.132812 17.023438 39.328125 17.105469 39.492188 17.265625 C 39.652344 17.425781 39.734375 17.621094 39.734375 17.851562 Z M 39.734375 17.851562 " fill-opacity="1" fill-rule="nonzero"/><path fill="#1c73b7" d="M 45.671875 17.851562 C 45.671875 18.078125 45.589844 18.273438 45.429688 18.433594 C 45.269531 18.597656 45.074219 18.675781 44.84375 18.675781 C 44.617188 18.675781 44.421875 18.597656 44.261719 18.433594 C 44.097656 18.273438 44.019531 18.078125 44.019531 17.851562 C 44.019531 17.621094 44.097656 17.425781 44.261719 17.265625 C 44.421875 17.105469 44.617188 17.023438 44.84375 17.023438 C 45.074219 17.023438 45.269531 17.105469 45.429688 17.265625 C 45.589844 17.425781 45.671875 17.621094 45.671875 17.851562 Z M 45.671875 17.851562 " fill-opacity="1" fill-rule="nonzero"/><path fill="#1c73b7" d="M 51.609375 17.851562 C 51.609375 18.078125 51.53125 18.273438 51.367188 18.433594 C 51.207031 18.597656 51.011719 18.675781 50.785156 18.675781 C 50.554688 18.675781 50.359375 18.597656 50.199219 18.433594 C 50.039062 18.273438 49.957031 18.078125 49.957031 17.851562 C 49.957031 17.621094 50.039062 17.425781 50.199219 17.265625 C 50.359375 17.105469 50.554688 17.023438 50.785156 17.023438 C 51.011719 17.023438 51.207031 17.105469 51.367188 17.265625 C 51.53125 17.425781 51.609375 17.621094 51.609375 17.851562 Z M 51.609375 17.851562 " fill-opacity="1" fill-rule="nonzero"/><g clip-path="url(#f977a2151f)"><path fill="#1c73b7" d="M 57.550781 17.851562 C 57.550781 18.078125 57.46875 18.273438 57.308594 18.433594 C 57.144531 18.597656 56.949219 18.675781 56.722656 18.675781 C 56.496094 18.675781 56.300781 18.597656 56.136719 18.433594 C 55.976562 18.273438 55.894531 18.078125 55.894531 17.851562 C 55.894531 17.621094 55.976562 17.425781 56.136719 17.265625 C 56.300781 17.105469 56.496094 17.023438 56.722656 17.023438 C 56.949219 17.023438 57.144531 17.105469 57.308594 17.265625 C 57.46875 17.425781 57.550781 17.621094 57.550781 17.851562 Z M 57.550781 17.851562 " fill-opacity="1" fill-rule="nonzero"/></g><g clip-path="url(#c5962c6312)"><path fill="#1c73b7" d="M 4.101562 22.710938 C 4.101562 22.9375 4.019531 23.132812 3.859375 23.292969 C 3.695312 23.457031 3.503906 23.535156 3.273438 23.535156 C 3.046875 23.535156 2.851562 23.457031 2.6875 23.292969 C 2.527344 23.132812 2.449219 22.9375 2.449219 22.710938 C 2.449219 22.480469 2.527344 22.285156 2.6875 22.125 C 2.851562 21.964844 3.046875 21.882812 3.273438 21.882812 C 3.503906 21.882812 3.695312 21.964844 3.859375 22.125 C 4.019531 22.285156 4.101562 22.480469 4.101562 22.710938 Z M 4.101562 22.710938 " fill-opacity="1" fill-rule="nonzero"/></g><path fill="#1c73b7" d="M 10.039062 22.710938 C 10.039062 22.9375 9.957031 23.132812 9.796875 23.292969 C 9.636719 23.457031 9.441406 23.535156 9.210938 23.535156 C 8.984375 23.535156 8.789062 23.457031 8.628906 23.292969 C 8.464844 23.132812 8.386719 22.9375 8.386719 22.710938 C 8.386719 22.480469 8.464844 22.285156 8.628906 22.125 C 8.789062 21.964844 8.984375 21.882812 9.210938 21.882812 C 9.441406 21.882812 9.636719 21.964844 9.796875 22.125 C 9.957031 22.285156 10.039062 22.480469 10.039062 22.710938 Z M 10.039062 22.710938 " fill-opacity="1" fill-rule="nonzero"/><path fill="#1c73b7" d="M 15.976562 22.710938 C 15.976562 22.9375 15.898438 23.132812 15.734375 23.292969 C 15.574219 23.457031 15.378906 23.535156 15.152344 23.535156 C 14.921875 23.535156 14.726562 23.457031 14.566406 23.292969 C 14.40625 23.132812 14.324219 22.9375 14.324219 22.710938 C 14.324219 22.480469 14.40625 22.285156 14.566406 22.125 C 14.726562 21.964844 14.921875 21.882812 15.152344 21.882812 C 15.378906 21.882812 15.574219 21.964844 15.734375 22.125 C 15.898438 22.285156 15.976562 22.480469 15.976562 22.710938 Z M 15.976562 22.710938 " fill-opacity="1" fill-rule="nonzero"/><path fill="#1c73b7" d="M 21.917969 22.710938 C 21.917969 22.9375 21.835938 23.132812 21.675781 23.292969 C 21.511719 23.457031 21.316406 23.535156 21.089844 23.535156 C 20.863281 23.535156 20.667969 23.457031 20.503906 23.292969 C 20.34375 23.132812 20.261719 22.9375 20.261719 22.710938 C 20.261719 22.480469 20.34375 22.285156 20.503906 22.125 C 20.667969 21.964844 20.863281 21.882812 21.089844 21.882812 C 21.316406 21.882812 21.511719 21.964844 21.675781 22.125 C 21.835938 22.285156 21.917969 22.480469 21.917969 22.710938 Z M 21.917969 22.710938 " fill-opacity="1" fill-rule="nonzero"/><path fill="#1c73b7" d="M 27.855469 22.710938 C 27.855469 22.9375 27.773438 23.132812 27.613281 23.292969 C 27.453125 23.457031 27.257812 23.535156 27.027344 23.535156 C 26.800781 23.535156 26.605469 23.457031 26.445312 23.292969 C 26.28125 23.132812 26.203125 22.9375 26.203125 22.710938 C 26.203125 22.480469 26.28125 22.285156 26.445312 22.125 C 26.605469 21.964844 26.800781 21.882812 27.027344 21.882812 C 27.257812 21.882812 27.453125 21.964844 27.613281 22.125 C 27.773438 22.285156 27.855469 22.480469 27.855469 22.710938 Z M 27.855469 22.710938 " fill-opacity="1" fill-rule="nonzero"/><path fill="#1c73b7" d="M 33.792969 22.710938 C 33.792969 22.9375 33.714844 23.132812 33.550781 23.292969 C 33.390625 23.457031 33.195312 23.535156 32.96875 23.535156 C 32.738281 23.535156 32.542969 23.457031 32.382812 23.292969 C 32.222656 23.132812 32.140625 22.9375 32.140625 22.710938 C 32.140625 22.480469 32.222656 22.285156 32.382812 22.125 C 32.542969 21.964844 32.738281 21.882812 32.96875 21.882812 C 33.195312 21.882812 33.390625 21.964844 33.550781 22.125 C 33.714844 22.285156 33.792969 22.480469 33.792969 22.710938 Z M 33.792969 22.710938 " fill-opacity="1" fill-rule="nonzero"/><path fill="#1c73b7" d="M 39.734375 22.710938 C 39.734375 22.9375 39.652344 23.132812 39.492188 23.292969 C 39.328125 23.457031 39.132812 23.535156 38.90625 23.535156 C 38.679688 23.535156 38.484375 23.457031 38.320312 23.292969 C 38.160156 23.132812 38.078125 22.9375 38.078125 22.710938 C 38.078125 22.480469 38.160156 22.285156 38.320312 22.125 C 38.484375 21.964844 38.679688 21.882812 38.90625 21.882812 C 39.132812 21.882812 39.328125 21.964844 39.492188 22.125 C 39.652344 22.285156 39.734375 22.480469 39.734375 22.710938 Z M 39.734375 22.710938 " fill-opacity="1" fill-rule="nonzero"/><path fill="#1c73b7" d="M 45.671875 22.710938 C 45.671875 22.9375 45.589844 23.132812 45.429688 23.292969 C 45.269531 23.457031 45.074219 23.535156 44.84375 23.535156 C 44.617188 23.535156 44.421875 23.457031 44.261719 23.292969 C 44.097656 23.132812 44.019531 22.9375 44.019531 22.710938 C 44.019531 22.480469 44.097656 22.285156 44.261719 22.125 C 44.421875 21.964844 44.617188 21.882812 44.84375 21.882812 C 45.074219 21.882812 45.269531 21.964844 45.429688 22.125 C 45.589844 22.285156 45.671875 22.480469 45.671875 22.710938 Z M 45.671875 22.710938 " fill-opacity="1" fill-rule="nonzero"/><path fill="#1c73b7" d="M 51.609375 22.710938 C 51.609375 22.9375 51.53125 23.132812 51.367188 23.292969 C 51.207031 23.457031 51.011719 23.535156 50.785156 23.535156 C 50.554688 23.535156 50.359375 23.457031 50.199219 23.292969 C 50.039062 23.132812 49.957031 22.9375 49.957031 22.710938 C 49.957031 22.480469 50.039062 22.285156 50.199219 22.125 C 50.359375 21.964844 50.554688 21.882812 50.785156 21.882812 C 51.011719 21.882812 51.207031 21.964844 51.367188 22.125 C 51.53125 22.285156 51.609375 22.480469 51.609375 22.710938 Z M 51.609375 22.710938 " fill-opacity="1" fill-rule="nonzero"/><g clip-path="url(#f17beba730)"><path fill="#1c73b7" d="M 57.550781 22.710938 C 57.550781 22.9375 57.46875 23.132812 57.308594 23.292969 C 57.144531 23.457031 56.949219 23.535156 56.722656 23.535156 C 56.496094 23.535156 56.300781 23.457031 56.136719 23.292969 C 55.976562 23.132812 55.894531 22.9375 55.894531 22.710938 C 55.894531 22.480469 55.976562 22.285156 56.136719 22.125 C 56.300781 21.964844 56.496094 21.882812 56.722656 21.882812 C 56.949219 21.882812 57.144531 21.964844 57.308594 22.125 C 57.46875 22.285156 57.550781 22.480469 57.550781 22.710938 Z M 57.550781 22.710938 " fill-opacity="1" fill-rule="nonzero"/></g><g clip-path="url(#2000b527ae)"><path fill="#1c73b7" d="M 4.101562 27.570312 C 4.101562 27.796875 4.019531 27.992188 3.859375 28.152344 C 3.695312 28.316406 3.503906 28.394531 3.273438 28.394531 C 3.046875 28.394531 2.851562 28.316406 2.6875 28.152344 C 2.527344 27.992188 2.449219 27.796875 2.449219 27.570312 C 2.449219 27.339844 2.527344 27.144531 2.6875 26.984375 C 2.851562 26.824219 3.046875 26.742188 3.273438 26.742188 C 3.503906 26.742188 3.695312 26.824219 3.859375 26.984375 C 4.019531 27.144531 4.101562 27.339844 4.101562 27.570312 Z M 4.101562 27.570312 " fill-opacity="1" fill-rule="nonzero"/></g><path fill="#1c73b7" d="M 10.039062 27.570312 C 10.039062 27.796875 9.957031 27.992188 9.796875 28.152344 C 9.636719 28.316406 9.441406 28.394531 9.210938 28.394531 C 8.984375 28.394531 8.789062 28.316406 8.628906 28.152344 C 8.464844 27.992188 8.386719 27.796875 8.386719 27.570312 C 8.386719 27.339844 8.464844 27.144531 8.628906 26.984375 C 8.789062 26.824219 8.984375 26.742188 9.210938 26.742188 C 9.441406 26.742188 9.636719 26.824219 9.796875 26.984375 C 9.957031 27.144531 10.039062 27.339844 10.039062 27.570312 Z M 10.039062 27.570312 " fill-opacity="1" fill-rule="nonzero"/><path fill="#1c73b7" d="M 15.976562 27.570312 C 15.976562 27.796875 15.898438 27.992188 15.734375 28.152344 C 15.574219 28.316406 15.378906 28.394531 15.152344 28.394531 C 14.921875 28.394531 14.726562 28.316406 14.566406 28.152344 C 14.40625 27.992188 14.324219 27.796875 14.324219 27.570312 C 14.324219 27.339844 14.40625 27.144531 14.566406 26.984375 C 14.726562 26.824219 14.921875 26.742188 15.152344 26.742188 C 15.378906 26.742188 15.574219 26.824219 15.734375 26.984375 C 15.898438 27.144531 15.976562 27.339844 15.976562 27.570312 Z M 15.976562 27.570312 " fill-opacity="1" fill-rule="nonzero"/><path fill="#1c73b7" d="M 21.917969 27.570312 C 21.917969 27.796875 21.835938 27.992188 21.675781 28.152344 C 21.511719 28.316406 21.316406 28.394531 21.089844 28.394531 C 20.863281 28.394531 20.667969 28.316406 20.503906 28.152344 C 20.34375 27.992188 20.261719 27.796875 20.261719 27.570312 C 20.261719 27.339844 20.34375 27.144531 20.503906 26.984375 C 20.667969 26.824219 20.863281 26.742188 21.089844 26.742188 C 21.316406 26.742188 21.511719 26.824219 21.675781 26.984375 C 21.835938 27.144531 21.917969 27.339844 21.917969 27.570312 Z M 21.917969 27.570312 " fill-opacity="1" fill-rule="nonzero"/><path fill="#1c73b7" d="M 27.855469 27.570312 C 27.855469 27.796875 27.773438 27.992188 27.613281 28.152344 C 27.453125 28.316406 27.257812 28.394531 27.027344 28.394531 C 26.800781 28.394531 26.605469 28.316406 26.445312 28.152344 C 26.28125 27.992188 26.203125 27.796875 26.203125 27.570312 C 26.203125 27.339844 26.28125 27.144531 26.445312 26.984375 C 26.605469 26.824219 26.800781 26.742188 27.027344 26.742188 C 27.257812 26.742188 27.453125 26.824219 27.613281 26.984375 C 27.773438 27.144531 27.855469 27.339844 27.855469 27.570312 Z M 27.855469 27.570312 " fill-opacity="1" fill-rule="nonzero"/><path fill="#1c73b7" d="M 33.792969 27.570312 C 33.792969 27.796875 33.714844 27.992188 33.550781 28.152344 C 33.390625 28.316406 33.195312 28.394531 32.96875 28.394531 C 32.738281 28.394531 32.542969 28.316406 32.382812 28.152344 C 32.222656 27.992188 32.140625 27.796875 32.140625 27.570312 C 32.140625 27.339844 32.222656 27.144531 32.382812 26.984375 C 32.542969 26.824219 32.738281 26.742188 32.96875 26.742188 C 33.195312 26.742188 33.390625 26.824219 33.550781 26.984375 C 33.714844 27.144531 33.792969 27.339844 33.792969 27.570312 Z M 33.792969 27.570312 " fill-opacity="1" fill-rule="nonzero"/><path fill="#1c73b7" d="M 39.734375 27.570312 C 39.734375 27.796875 39.652344 27.992188 39.492188 28.152344 C 39.328125 28.316406 39.132812 28.394531 38.90625 28.394531 C 38.679688 28.394531 38.484375 28.316406 38.320312 28.152344 C 38.160156 27.992188 38.078125 27.796875 38.078125 27.570312 C 38.078125 27.339844 38.160156 27.144531 38.320312 26.984375 C 38.484375 26.824219 38.679688 26.742188 38.90625 26.742188 C 39.132812 26.742188 39.328125 26.824219 39.492188 26.984375 C 39.652344 27.144531 39.734375 27.339844 39.734375 27.570312 Z M 39.734375 27.570312 " fill-opacity="1" fill-rule="nonzero"/><path fill="#1c73b7" d="M 45.671875 27.570312 C 45.671875 27.796875 45.589844 27.992188 45.429688 28.152344 C 45.269531 28.316406 45.074219 28.394531 44.84375 28.394531 C 44.617188 28.394531 44.421875 28.316406 44.261719 28.152344 C 44.097656 27.992188 44.019531 27.796875 44.019531 27.570312 C 44.019531 27.339844 44.097656 27.144531 44.261719 26.984375 C 44.421875 26.824219 44.617188 26.742188 44.84375 26.742188 C 45.074219 26.742188 45.269531 26.824219 45.429688 26.984375 C 45.589844 27.144531 45.671875 27.339844 45.671875 27.570312 Z M 45.671875 27.570312 " fill-opacity="1" fill-rule="nonzero"/><path fill="#1c73b7" d="M 51.609375 27.570312 C 51.609375 27.796875 51.53125 27.992188 51.367188 28.152344 C 51.207031 28.316406 51.011719 28.394531 50.785156 28.394531 C 50.554688 28.394531 50.359375 28.316406 50.199219 28.152344 C 50.039062 27.992188 49.957031 27.796875 49.957031 27.570312 C 49.957031 27.339844 50.039062 27.144531 50.199219 26.984375 C 50.359375 26.824219 50.554688 26.742188 50.785156 26.742188 C 51.011719 26.742188 51.207031 26.824219 51.367188 26.984375 C 51.53125 27.144531 51.609375 27.339844 51.609375 27.570312 Z M 51.609375 27.570312 " fill-opacity="1" fill-rule="nonzero"/><g clip-path="url(#7bb4640456)"><path fill="#1c73b7" d="M 57.550781 27.570312 C 57.550781 27.796875 57.46875 27.992188 57.308594 28.152344 C 57.144531 28.316406 56.949219 28.394531 56.722656 28.394531 C 56.496094 28.394531 56.300781 28.316406 56.136719 28.152344 C 55.976562 27.992188 55.894531 27.796875 55.894531 27.570312 C 55.894531 27.339844 55.976562 27.144531 56.136719 26.984375 C 56.300781 26.824219 56.496094 26.742188 56.722656 26.742188 C 56.949219 26.742188 57.144531 26.824219 57.308594 26.984375 C 57.46875 27.144531 57.550781 27.339844 57.550781 27.570312 Z M 57.550781 27.570312 " fill-opacity="1" fill-rule="nonzero"/></g><g clip-path="url(#700167bff0)"><path fill="#1c73b7" d="M 4.101562 32.425781 C 4.101562 32.65625 4.019531 32.851562 3.859375 33.011719 C 3.695312 33.171875 3.503906 33.253906 3.273438 33.253906 C 3.046875 33.253906 2.851562 33.171875 2.6875 33.011719 C 2.527344 32.851562 2.449219 32.65625 2.449219 32.425781 C 2.449219 32.199219 2.527344 32.003906 2.6875 31.84375 C 2.851562 31.683594 3.046875 31.601562 3.273438 31.601562 C 3.503906 31.601562 3.695312 31.683594 3.859375 31.84375 C 4.019531 32.003906 4.101562 32.199219 4.101562 32.425781 Z M 4.101562 32.425781 " fill-opacity="1" fill-rule="nonzero"/></g><path fill="#1c73b7" d="M 10.039062 32.425781 C 10.039062 32.65625 9.957031 32.851562 9.796875 33.011719 C 9.636719 33.171875 9.441406 33.253906 9.210938 33.253906 C 8.984375 33.253906 8.789062 33.171875 8.628906 33.011719 C 8.464844 32.851562 8.386719 32.65625 8.386719 32.425781 C 8.386719 32.199219 8.464844 32.003906 8.628906 31.84375 C 8.789062 31.683594 8.984375 31.601562 9.210938 31.601562 C 9.441406 31.601562 9.636719 31.683594 9.796875 31.84375 C 9.957031 32.003906 10.039062 32.199219 10.039062 32.425781 Z M 10.039062 32.425781 " fill-opacity="1" fill-rule="nonzero"/><path fill="#1c73b7" d="M 15.976562 32.425781 C 15.976562 32.65625 15.898438 32.851562 15.734375 33.011719 C 15.574219 33.171875 15.378906 33.253906 15.152344 33.253906 C 14.921875 33.253906 14.726562 33.171875 14.566406 33.011719 C 14.40625 32.851562 14.324219 32.65625 14.324219 32.425781 C 14.324219 32.199219 14.40625 32.003906 14.566406 31.84375 C 14.726562 31.683594 14.921875 31.601562 15.152344 31.601562 C 15.378906 31.601562 15.574219 31.683594 15.734375 31.84375 C 15.898438 32.003906 15.976562 32.199219 15.976562 32.425781 Z M 15.976562 32.425781 " fill-opacity="1" fill-rule="nonzero"/><path fill="#1c73b7" d="M 21.917969 32.425781 C 21.917969 32.65625 21.835938 32.851562 21.675781 33.011719 C 21.511719 33.171875 21.316406 33.253906 21.089844 33.253906 C 20.863281 33.253906 20.667969 33.171875 20.503906 33.011719 C 20.34375 32.851562 20.261719 32.65625 20.261719 32.425781 C 20.261719 32.199219 20.34375 32.003906 20.503906 31.84375 C 20.667969 31.683594 20.863281 31.601562 21.089844 31.601562 C 21.316406 31.601562 21.511719 31.683594 21.675781 31.84375 C 21.835938 32.003906 21.917969 32.199219 21.917969 32.425781 Z M 21.917969 32.425781 " fill-opacity="1" fill-rule="nonzero"/><path fill="#1c73b7" d="M 27.855469 32.425781 C 27.855469 32.65625 27.773438 32.851562 27.613281 33.011719 C 27.453125 33.171875 27.257812 33.253906 27.027344 33.253906 C 26.800781 33.253906 26.605469 33.171875 26.445312 33.011719 C 26.28125 32.851562 26.203125 32.65625 26.203125 32.425781 C 26.203125 32.199219 26.28125 32.003906 26.445312 31.84375 C 26.605469 31.683594 26.800781 31.601562 27.027344 31.601562 C 27.257812 31.601562 27.453125 31.683594 27.613281 31.84375 C 27.773438 32.003906 27.855469 32.199219 27.855469 32.425781 Z M 27.855469 32.425781 " fill-opacity="1" fill-rule="nonzero"/><path fill="#1c73b7" d="M 33.792969 32.425781 C 33.792969 32.65625 33.714844 32.851562 33.550781 33.011719 C 33.390625 33.171875 33.195312 33.253906 32.96875 33.253906 C 32.738281 33.253906 32.542969 33.171875 32.382812 33.011719 C 32.222656 32.851562 32.140625 32.65625 32.140625 32.425781 C 32.140625 32.199219 32.222656 32.003906 32.382812 31.84375 C 32.542969 31.683594 32.738281 31.601562 32.96875 31.601562 C 33.195312 31.601562 33.390625 31.683594 33.550781 31.84375 C 33.714844 32.003906 33.792969 32.199219 33.792969 32.425781 Z M 33.792969 32.425781 " fill-opacity="1" fill-rule="nonzero"/><path fill="#1c73b7" d="M 39.734375 32.425781 C 39.734375 32.65625 39.652344 32.851562 39.492188 33.011719 C 39.328125 33.171875 39.132812 33.253906 38.90625 33.253906 C 38.679688 33.253906 38.484375 33.171875 38.320312 33.011719 C 38.160156 32.851562 38.078125 32.65625 38.078125 32.425781 C 38.078125 32.199219 38.160156 32.003906 38.320312 31.84375 C 38.484375 31.683594 38.679688 31.601562 38.90625 31.601562 C 39.132812 31.601562 39.328125 31.683594 39.492188 31.84375 C 39.652344 32.003906 39.734375 32.199219 39.734375 32.425781 Z M 39.734375 32.425781 " fill-opacity="1" fill-rule="nonzero"/><path fill="#1c73b7" d="M 45.671875 32.425781 C 45.671875 32.65625 45.589844 32.851562 45.429688 33.011719 C 45.269531 33.171875 45.074219 33.253906 44.84375 33.253906 C 44.617188 33.253906 44.421875 33.171875 44.261719 33.011719 C 44.097656 32.851562 44.019531 32.65625 44.019531 32.425781 C 44.019531 32.199219 44.097656 32.003906 44.261719 31.84375 C 44.421875 31.683594 44.617188 31.601562 44.84375 31.601562 C 45.074219 31.601562 45.269531 31.683594 45.429688 31.84375 C 45.589844 32.003906 45.671875 32.199219 45.671875 32.425781 Z M 45.671875 32.425781 " fill-opacity="1" fill-rule="nonzero"/><path fill="#1c73b7" d="M 51.609375 32.425781 C 51.609375 32.65625 51.53125 32.851562 51.367188 33.011719 C 51.207031 33.171875 51.011719 33.253906 50.785156 33.253906 C 50.554688 33.253906 50.359375 33.171875 50.199219 33.011719 C 50.039062 32.851562 49.957031 32.65625 49.957031 32.425781 C 49.957031 32.199219 50.039062 32.003906 50.199219 31.84375 C 50.359375 31.683594 50.554688 31.601562 50.785156 31.601562 C 51.011719 31.601562 51.207031 31.683594 51.367188 31.84375 C 51.53125 32.003906 51.609375 32.199219 51.609375 32.425781 Z M 51.609375 32.425781 " fill-opacity="1" fill-rule="nonzero"/><g clip-path="url(#c5fb651874)"><path fill="#1c73b7" d="M 57.550781 32.425781 C 57.550781 32.65625 57.46875 32.851562 57.308594 33.011719 C 57.144531 33.171875 56.949219 33.253906 56.722656 33.253906 C 56.496094 33.253906 56.300781 33.171875 56.136719 33.011719 C 55.976562 32.851562 55.894531 32.65625 55.894531 32.425781 C 55.894531 32.199219 55.976562 32.003906 56.136719 31.84375 C 56.300781 31.683594 56.496094 31.601562 56.722656 31.601562 C 56.949219 31.601562 57.144531 31.683594 57.308594 31.84375 C 57.46875 32.003906 57.550781 32.199219 57.550781 32.425781 Z M 57.550781 32.425781 " fill-opacity="1" fill-rule="nonzero"/></g><g clip-path="url(#e97526e377)"><path fill="#1c73b7" d="M 4.101562 37.285156 C 4.101562 37.515625 4.019531 37.710938 3.859375 37.871094 C 3.695312 38.03125 3.503906 38.113281 3.273438 38.113281 C 3.046875 38.113281 2.851562 38.03125 2.6875 37.871094 C 2.527344 37.710938 2.449219 37.515625 2.449219 37.285156 C 2.449219 37.058594 2.527344 36.863281 2.6875 36.703125 C 2.851562 36.539062 3.046875 36.460938 3.273438 36.460938 C 3.503906 36.460938 3.695312 36.539062 3.859375 36.703125 C 4.019531 36.863281 4.101562 37.058594 4.101562 37.285156 Z M 4.101562 37.285156 " fill-opacity="1" fill-rule="nonzero"/></g><path fill="#1c73b7" d="M 10.039062 37.285156 C 10.039062 37.515625 9.957031 37.710938 9.796875 37.871094 C 9.636719 38.03125 9.441406 38.113281 9.210938 38.113281 C 8.984375 38.113281 8.789062 38.03125 8.628906 37.871094 C 8.464844 37.710938 8.386719 37.515625 8.386719 37.285156 C 8.386719 37.058594 8.464844 36.863281 8.628906 36.703125 C 8.789062 36.539062 8.984375 36.460938 9.210938 36.460938 C 9.441406 36.460938 9.636719 36.539062 9.796875 36.703125 C 9.957031 36.863281 10.039062 37.058594 10.039062 37.285156 Z M 10.039062 37.285156 " fill-opacity="1" fill-rule="nonzero"/><path fill="#1c73b7" d="M 15.976562 37.285156 C 15.976562 37.515625 15.898438 37.710938 15.734375 37.871094 C 15.574219 38.03125 15.378906 38.113281 15.152344 38.113281 C 14.921875 38.113281 14.726562 38.03125 14.566406 37.871094 C 14.40625 37.710938 14.324219 37.515625 14.324219 37.285156 C 14.324219 37.058594 14.40625 36.863281 14.566406 36.703125 C 14.726562 36.539062 14.921875 36.460938 15.152344 36.460938 C 15.378906 36.460938 15.574219 36.539062 15.734375 36.703125 C 15.898438 36.863281 15.976562 37.058594 15.976562 37.285156 Z M 15.976562 37.285156 " fill-opacity="1" fill-rule="nonzero"/><path fill="#1c73b7" d="M 21.917969 37.285156 C 21.917969 37.515625 21.835938 37.710938 21.675781 37.871094 C 21.511719 38.03125 21.316406 38.113281 21.089844 38.113281 C 20.863281 38.113281 20.667969 38.03125 20.503906 37.871094 C 20.34375 37.710938 20.261719 37.515625 20.261719 37.285156 C 20.261719 37.058594 20.34375 36.863281 20.503906 36.703125 C 20.667969 36.539062 20.863281 36.460938 21.089844 36.460938 C 21.316406 36.460938 21.511719 36.539062 21.675781 36.703125 C 21.835938 36.863281 21.917969 37.058594 21.917969 37.285156 Z M 21.917969 37.285156 " fill-opacity="1" fill-rule="nonzero"/><path fill="#1c73b7" d="M 27.855469 37.285156 C 27.855469 37.515625 27.773438 37.710938 27.613281 37.871094 C 27.453125 38.03125 27.257812 38.113281 27.027344 38.113281 C 26.800781 38.113281 26.605469 38.03125 26.445312 37.871094 C 26.28125 37.710938 26.203125 37.515625 26.203125 37.285156 C 26.203125 37.058594 26.28125 36.863281 26.445312 36.703125 C 26.605469 36.539062 26.800781 36.460938 27.027344 36.460938 C 27.257812 36.460938 27.453125 36.539062 27.613281 36.703125 C 27.773438 36.863281 27.855469 37.058594 27.855469 37.285156 Z M 27.855469 37.285156 " fill-opacity="1" fill-rule="nonzero"/><path fill="#1c73b7" d="M 33.792969 37.285156 C 33.792969 37.515625 33.714844 37.710938 33.550781 37.871094 C 33.390625 38.03125 33.195312 38.113281 32.96875 38.113281 C 32.738281 38.113281 32.542969 38.03125 32.382812 37.871094 C 32.222656 37.710938 32.140625 37.515625 32.140625 37.285156 C 32.140625 37.058594 32.222656 36.863281 32.382812 36.703125 C 32.542969 36.539062 32.738281 36.460938 32.96875 36.460938 C 33.195312 36.460938 33.390625 36.539062 33.550781 36.703125 C 33.714844 36.863281 33.792969 37.058594 33.792969 37.285156 Z M 33.792969 37.285156 " fill-opacity="1" fill-rule="nonzero"/><path fill="#1c73b7" d="M 39.734375 37.285156 C 39.734375 37.515625 39.652344 37.710938 39.492188 37.871094 C 39.328125 38.03125 39.132812 38.113281 38.90625 38.113281 C 38.679688 38.113281 38.484375 38.03125 38.320312 37.871094 C 38.160156 37.710938 38.078125 37.515625 38.078125 37.285156 C 38.078125 37.058594 38.160156 36.863281 38.320312 36.703125 C 38.484375 36.539062 38.679688 36.460938 38.90625 36.460938 C 39.132812 36.460938 39.328125 36.539062 39.492188 36.703125 C 39.652344 36.863281 39.734375 37.058594 39.734375 37.285156 Z M 39.734375 37.285156 " fill-opacity="1" fill-rule="nonzero"/><path fill="#1c73b7" d="M 45.671875 37.285156 C 45.671875 37.515625 45.589844 37.710938 45.429688 37.871094 C 45.269531 38.03125 45.074219 38.113281 44.84375 38.113281 C 44.617188 38.113281 44.421875 38.03125 44.261719 37.871094 C 44.097656 37.710938 44.019531 37.515625 44.019531 37.285156 C 44.019531 37.058594 44.097656 36.863281 44.261719 36.703125 C 44.421875 36.539062 44.617188 36.460938 44.84375 36.460938 C 45.074219 36.460938 45.269531 36.539062 45.429688 36.703125 C 45.589844 36.863281 45.671875 37.058594 45.671875 37.285156 Z M 45.671875 37.285156 " fill-opacity="1" fill-rule="nonzero"/><path fill="#1c73b7" d="M 51.609375 37.285156 C 51.609375 37.515625 51.53125 37.710938 51.367188 37.871094 C 51.207031 38.03125 51.011719 38.113281 50.785156 38.113281 C 50.554688 38.113281 50.359375 38.03125 50.199219 37.871094 C 50.039062 37.710938 49.957031 37.515625 49.957031 37.285156 C 49.957031 37.058594 50.039062 36.863281 50.199219 36.703125 C 50.359375 36.539062 50.554688 36.460938 50.785156 36.460938 C 51.011719 36.460938 51.207031 36.539062 51.367188 36.703125 C 51.53125 36.863281 51.609375 37.058594 51.609375 37.285156 Z M 51.609375 37.285156 " fill-opacity="1" fill-rule="nonzero"/><g clip-path="url(#b9ead4147b)"><path fill="#1c73b7" d="M 57.550781 37.285156 C 57.550781 37.515625 57.46875 37.710938 57.308594 37.871094 C 57.144531 38.03125 56.949219 38.113281 56.722656 38.113281 C 56.496094 38.113281 56.300781 38.03125 56.136719 37.871094 C 55.976562 37.710938 55.894531 37.515625 55.894531 37.285156 C 55.894531 37.058594 55.976562 36.863281 56.136719 36.703125 C 56.300781 36.539062 56.496094 36.460938 56.722656 36.460938 C 56.949219 36.460938 57.144531 36.539062 57.308594 36.703125 C 57.46875 36.863281 57.550781 37.058594 57.550781 37.285156 Z M 57.550781 37.285156 " fill-opacity="1" fill-rule="nonzero"/></g><g clip-path="url(#fdfbdbc7f2)"><path fill="#1c73b7" d="M 4.101562 42.144531 C 4.101562 42.375 4.019531 42.570312 3.859375 42.730469 C 3.695312 42.890625 3.503906 42.972656 3.273438 42.972656 C 3.046875 42.972656 2.851562 42.890625 2.6875 42.730469 C 2.527344 42.570312 2.449219 42.375 2.449219 42.144531 C 2.449219 41.917969 2.527344 41.722656 2.6875 41.5625 C 2.851562 41.398438 3.046875 41.320312 3.273438 41.320312 C 3.503906 41.320312 3.695312 41.398438 3.859375 41.5625 C 4.019531 41.722656 4.101562 41.917969 4.101562 42.144531 Z M 4.101562 42.144531 " fill-opacity="1" fill-rule="nonzero"/></g><path fill="#1c73b7" d="M 10.039062 42.144531 C 10.039062 42.375 9.957031 42.570312 9.796875 42.730469 C 9.636719 42.890625 9.441406 42.972656 9.210938 42.972656 C 8.984375 42.972656 8.789062 42.890625 8.628906 42.730469 C 8.464844 42.570312 8.386719 42.375 8.386719 42.144531 C 8.386719 41.917969 8.464844 41.722656 8.628906 41.5625 C 8.789062 41.398438 8.984375 41.320312 9.210938 41.320312 C 9.441406 41.320312 9.636719 41.398438 9.796875 41.5625 C 9.957031 41.722656 10.039062 41.917969 10.039062 42.144531 Z M 10.039062 42.144531 " fill-opacity="1" fill-rule="nonzero"/><path fill="#1c73b7" d="M 15.976562 42.144531 C 15.976562 42.375 15.898438 42.570312 15.734375 42.730469 C 15.574219 42.890625 15.378906 42.972656 15.152344 42.972656 C 14.921875 42.972656 14.726562 42.890625 14.566406 42.730469 C 14.40625 42.570312 14.324219 42.375 14.324219 42.144531 C 14.324219 41.917969 14.40625 41.722656 14.566406 41.5625 C 14.726562 41.398438 14.921875 41.320312 15.152344 41.320312 C 15.378906 41.320312 15.574219 41.398438 15.734375 41.5625 C 15.898438 41.722656 15.976562 41.917969 15.976562 42.144531 Z M 15.976562 42.144531 " fill-opacity="1" fill-rule="nonzero"/><path fill="#1c73b7" d="M 21.917969 42.144531 C 21.917969 42.375 21.835938 42.570312 21.675781 42.730469 C 21.511719 42.890625 21.316406 42.972656 21.089844 42.972656 C 20.863281 42.972656 20.667969 42.890625 20.503906 42.730469 C 20.34375 42.570312 20.261719 42.375 20.261719 42.144531 C 20.261719 41.917969 20.34375 41.722656 20.503906 41.5625 C 20.667969 41.398438 20.863281 41.320312 21.089844 41.320312 C 21.316406 41.320312 21.511719 41.398438 21.675781 41.5625 C 21.835938 41.722656 21.917969 41.917969 21.917969 42.144531 Z M 21.917969 42.144531 " fill-opacity="1" fill-rule="nonzero"/><path fill="#1c73b7" d="M 27.855469 42.144531 C 27.855469 42.375 27.773438 42.570312 27.613281 42.730469 C 27.453125 42.890625 27.257812 42.972656 27.027344 42.972656 C 26.800781 42.972656 26.605469 42.890625 26.445312 42.730469 C 26.28125 42.570312 26.203125 42.375 26.203125 42.144531 C 26.203125 41.917969 26.28125 41.722656 26.445312 41.5625 C 26.605469 41.398438 26.800781 41.320312 27.027344 41.320312 C 27.257812 41.320312 27.453125 41.398438 27.613281 41.5625 C 27.773438 41.722656 27.855469 41.917969 27.855469 42.144531 Z M 27.855469 42.144531 " fill-opacity="1" fill-rule="nonzero"/><path fill="#1c73b7" d="M 33.792969 42.144531 C 33.792969 42.375 33.714844 42.570312 33.550781 42.730469 C 33.390625 42.890625 33.195312 42.972656 32.96875 42.972656 C 32.738281 42.972656 32.542969 42.890625 32.382812 42.730469 C 32.222656 42.570312 32.140625 42.375 32.140625 42.144531 C 32.140625 41.917969 32.222656 41.722656 32.382812 41.5625 C 32.542969 41.398438 32.738281 41.320312 32.96875 41.320312 C 33.195312 41.320312 33.390625 41.398438 33.550781 41.5625 C 33.714844 41.722656 33.792969 41.917969 33.792969 42.144531 Z M 33.792969 42.144531 " fill-opacity="1" fill-rule="nonzero"/><path fill="#1c73b7" d="M 39.734375 42.144531 C 39.734375 42.375 39.652344 42.570312 39.492188 42.730469 C 39.328125 42.890625 39.132812 42.972656 38.90625 42.972656 C 38.679688 42.972656 38.484375 42.890625 38.320312 42.730469 C 38.160156 42.570312 38.078125 42.375 38.078125 42.144531 C 38.078125 41.917969 38.160156 41.722656 38.320312 41.5625 C 38.484375 41.398438 38.679688 41.320312 38.90625 41.320312 C 39.132812 41.320312 39.328125 41.398438 39.492188 41.5625 C 39.652344 41.722656 39.734375 41.917969 39.734375 42.144531 Z M 39.734375 42.144531 " fill-opacity="1" fill-rule="nonzero"/><path fill="#1c73b7" d="M 45.671875 42.144531 C 45.671875 42.375 45.589844 42.570312 45.429688 42.730469 C 45.269531 42.890625 45.074219 42.972656 44.84375 42.972656 C 44.617188 42.972656 44.421875 42.890625 44.261719 42.730469 C 44.097656 42.570312 44.019531 42.375 44.019531 42.144531 C 44.019531 41.917969 44.097656 41.722656 44.261719 41.5625 C 44.421875 41.398438 44.617188 41.320312 44.84375 41.320312 C 45.074219 41.320312 45.269531 41.398438 45.429688 41.5625 C 45.589844 41.722656 45.671875 41.917969 45.671875 42.144531 Z M 45.671875 42.144531 " fill-opacity="1" fill-rule="nonzero"/><path fill="#1c73b7" d="M 51.609375 42.144531 C 51.609375 42.375 51.53125 42.570312 51.367188 42.730469 C 51.207031 42.890625 51.011719 42.972656 50.785156 42.972656 C 50.554688 42.972656 50.359375 42.890625 50.199219 42.730469 C 50.039062 42.570312 49.957031 42.375 49.957031 42.144531 C 49.957031 41.917969 50.039062 41.722656 50.199219 41.5625 C 50.359375 41.398438 50.554688 41.320312 50.785156 41.320312 C 51.011719 41.320312 51.207031 41.398438 51.367188 41.5625 C 51.53125 41.722656 51.609375 41.917969 51.609375 42.144531 Z M 51.609375 42.144531 " fill-opacity="1" fill-rule="nonzero"/><g clip-path="url(#5f4a8ea140)"><path fill="#1c73b7" d="M 57.550781 42.144531 C 57.550781 42.375 57.46875 42.570312 57.308594 42.730469 C 57.144531 42.890625 56.949219 42.972656 56.722656 42.972656 C 56.496094 42.972656 56.300781 42.890625 56.136719 42.730469 C 55.976562 42.570312 55.894531 42.375 55.894531 42.144531 C 55.894531 41.917969 55.976562 41.722656 56.136719 41.5625 C 56.300781 41.398438 56.496094 41.320312 56.722656 41.320312 C 56.949219 41.320312 57.144531 41.398438 57.308594 41.5625 C 57.46875 41.722656 57.550781 41.917969 57.550781 42.144531 Z M 57.550781 42.144531 " fill-opacity="1" fill-rule="nonzero"/></g><g clip-path="url(#e71e96a803)"><path fill="#1c73b7" d="M 4.101562 47.003906 C 4.101562 47.234375 4.019531 47.425781 3.859375 47.589844 C 3.695312 47.75 3.503906 47.832031 3.273438 47.832031 C 3.046875 47.832031 2.851562 47.75 2.6875 47.589844 C 2.527344 47.425781 2.449219 47.234375 2.449219 47.003906 C 2.449219 46.777344 2.527344 46.582031 2.6875 46.421875 C 2.851562 46.257812 3.046875 46.179688 3.273438 46.179688 C 3.503906 46.179688 3.695312 46.257812 3.859375 46.421875 C 4.019531 46.582031 4.101562 46.777344 4.101562 47.003906 Z M 4.101562 47.003906 " fill-opacity="1" fill-rule="nonzero"/></g><path fill="#1c73b7" d="M 10.039062 47.003906 C 10.039062 47.234375 9.957031 47.425781 9.796875 47.589844 C 9.636719 47.75 9.441406 47.832031 9.210938 47.832031 C 8.984375 47.832031 8.789062 47.75 8.628906 47.589844 C 8.464844 47.425781 8.386719 47.234375 8.386719 47.003906 C 8.386719 46.777344 8.464844 46.582031 8.628906 46.421875 C 8.789062 46.257812 8.984375 46.179688 9.210938 46.179688 C 9.441406 46.179688 9.636719 46.257812 9.796875 46.421875 C 9.957031 46.582031 10.039062 46.777344 10.039062 47.003906 Z M 10.039062 47.003906 " fill-opacity="1" fill-rule="nonzero"/><path fill="#1c73b7" d="M 15.976562 47.003906 C 15.976562 47.234375 15.898438 47.425781 15.734375 47.589844 C 15.574219 47.75 15.378906 47.832031 15.152344 47.832031 C 14.921875 47.832031 14.726562 47.75 14.566406 47.589844 C 14.40625 47.425781 14.324219 47.234375 14.324219 47.003906 C 14.324219 46.777344 14.40625 46.582031 14.566406 46.421875 C 14.726562 46.257812 14.921875 46.179688 15.152344 46.179688 C 15.378906 46.179688 15.574219 46.257812 15.734375 46.421875 C 15.898438 46.582031 15.976562 46.777344 15.976562 47.003906 Z M 15.976562 47.003906 " fill-opacity="1" fill-rule="nonzero"/><path fill="#1c73b7" d="M 21.917969 47.003906 C 21.917969 47.234375 21.835938 47.425781 21.675781 47.589844 C 21.511719 47.75 21.316406 47.832031 21.089844 47.832031 C 20.863281 47.832031 20.667969 47.75 20.503906 47.589844 C 20.34375 47.425781 20.261719 47.234375 20.261719 47.003906 C 20.261719 46.777344 20.34375 46.582031 20.503906 46.421875 C 20.667969 46.257812 20.863281 46.179688 21.089844 46.179688 C 21.316406 46.179688 21.511719 46.257812 21.675781 46.421875 C 21.835938 46.582031 21.917969 46.777344 21.917969 47.003906 Z M 21.917969 47.003906 " fill-opacity="1" fill-rule="nonzero"/><path fill="#1c73b7" d="M 27.855469 47.003906 C 27.855469 47.234375 27.773438 47.425781 27.613281 47.589844 C 27.453125 47.75 27.257812 47.832031 27.027344 47.832031 C 26.800781 47.832031 26.605469 47.75 26.445312 47.589844 C 26.28125 47.425781 26.203125 47.234375 26.203125 47.003906 C 26.203125 46.777344 26.28125 46.582031 26.445312 46.421875 C 26.605469 46.257812 26.800781 46.179688 27.027344 46.179688 C 27.257812 46.179688 27.453125 46.257812 27.613281 46.421875 C 27.773438 46.582031 27.855469 46.777344 27.855469 47.003906 Z M 27.855469 47.003906 " fill-opacity="1" fill-rule="nonzero"/><path fill="#1c73b7" d="M 33.792969 47.003906 C 33.792969 47.234375 33.714844 47.425781 33.550781 47.589844 C 33.390625 47.75 33.195312 47.832031 32.96875 47.832031 C 32.738281 47.832031 32.542969 47.75 32.382812 47.589844 C 32.222656 47.425781 32.140625 47.234375 32.140625 47.003906 C 32.140625 46.777344 32.222656 46.582031 32.382812 46.421875 C 32.542969 46.257812 32.738281 46.179688 32.96875 46.179688 C 33.195312 46.179688 33.390625 46.257812 33.550781 46.421875 C 33.714844 46.582031 33.792969 46.777344 33.792969 47.003906 Z M 33.792969 47.003906 " fill-opacity="1" fill-rule="nonzero"/><path fill="#1c73b7" d="M 39.734375 47.003906 C 39.734375 47.234375 39.652344 47.425781 39.492188 47.589844 C 39.328125 47.75 39.132812 47.832031 38.90625 47.832031 C 38.679688 47.832031 38.484375 47.75 38.320312 47.589844 C 38.160156 47.425781 38.078125 47.234375 38.078125 47.003906 C 38.078125 46.777344 38.160156 46.582031 38.320312 46.421875 C 38.484375 46.257812 38.679688 46.179688 38.90625 46.179688 C 39.132812 46.179688 39.328125 46.257812 39.492188 46.421875 C 39.652344 46.582031 39.734375 46.777344 39.734375 47.003906 Z M 39.734375 47.003906 " fill-opacity="1" fill-rule="nonzero"/><path fill="#1c73b7" d="M 45.671875 47.003906 C 45.671875 47.234375 45.589844 47.425781 45.429688 47.589844 C 45.269531 47.75 45.074219 47.832031 44.84375 47.832031 C 44.617188 47.832031 44.421875 47.75 44.261719 47.589844 C 44.097656 47.425781 44.019531 47.234375 44.019531 47.003906 C 44.019531 46.777344 44.097656 46.582031 44.261719 46.421875 C 44.421875 46.257812 44.617188 46.179688 44.84375 46.179688 C 45.074219 46.179688 45.269531 46.257812 45.429688 46.421875 C 45.589844 46.582031 45.671875 46.777344 45.671875 47.003906 Z M 45.671875 47.003906 " fill-opacity="1" fill-rule="nonzero"/><path fill="#1c73b7" d="M 51.609375 47.003906 C 51.609375 47.234375 51.53125 47.425781 51.367188 47.589844 C 51.207031 47.75 51.011719 47.832031 50.785156 47.832031 C 50.554688 47.832031 50.359375 47.75 50.199219 47.589844 C 50.039062 47.425781 49.957031 47.234375 49.957031 47.003906 C 49.957031 46.777344 50.039062 46.582031 50.199219 46.421875 C 50.359375 46.257812 50.554688 46.179688 50.785156 46.179688 C 51.011719 46.179688 51.207031 46.257812 51.367188 46.421875 C 51.53125 46.582031 51.609375 46.777344 51.609375 47.003906 Z M 51.609375 47.003906 " fill-opacity="1" fill-rule="nonzero"/><g clip-path="url(#6452ac3cfa)"><path fill="#1c73b7" d="M 57.550781 47.003906 C 57.550781 47.234375 57.46875 47.425781 57.308594 47.589844 C 57.144531 47.75 56.949219 47.832031 56.722656 47.832031 C 56.496094 47.832031 56.300781 47.75 56.136719 47.589844 C 55.976562 47.425781 55.894531 47.234375 55.894531 47.003906 C 55.894531 46.777344 55.976562 46.582031 56.136719 46.421875 C 56.300781 46.257812 56.496094 46.179688 56.722656 46.179688 C 56.949219 46.179688 57.144531 46.257812 57.308594 46.421875 C 57.46875 46.582031 57.550781 46.777344 57.550781 47.003906 Z M 57.550781 47.003906 " fill-opacity="1" fill-rule="nonzero"/></g><g clip-path="url(#605283e0cc)"><path fill="#1c73b7" d="M 4.101562 51.863281 C 4.101562 52.089844 4.019531 52.285156 3.859375 52.449219 C 3.695312 52.609375 3.503906 52.691406 3.273438 52.691406 C 3.046875 52.691406 2.851562 52.609375 2.6875 52.449219 C 2.527344 52.285156 2.449219 52.089844 2.449219 51.863281 C 2.449219 51.636719 2.527344 51.441406 2.6875 51.277344 C 2.851562 51.117188 3.046875 51.035156 3.273438 51.035156 C 3.503906 51.035156 3.695312 51.117188 3.859375 51.277344 C 4.019531 51.441406 4.101562 51.636719 4.101562 51.863281 Z M 4.101562 51.863281 " fill-opacity="1" fill-rule="nonzero"/></g><path fill="#1c73b7" d="M 10.039062 51.863281 C 10.039062 52.089844 9.957031 52.285156 9.796875 52.449219 C 9.636719 52.609375 9.441406 52.691406 9.210938 52.691406 C 8.984375 52.691406 8.789062 52.609375 8.628906 52.449219 C 8.464844 52.285156 8.386719 52.089844 8.386719 51.863281 C 8.386719 51.636719 8.464844 51.441406 8.628906 51.277344 C 8.789062 51.117188 8.984375 51.035156 9.210938 51.035156 C 9.441406 51.035156 9.636719 51.117188 9.796875 51.277344 C 9.957031 51.441406 10.039062 51.636719 10.039062 51.863281 Z M 10.039062 51.863281 " fill-opacity="1" fill-rule="nonzero"/><path fill="#1c73b7" d="M 15.976562 51.863281 C 15.976562 52.089844 15.898438 52.285156 15.734375 52.449219 C 15.574219 52.609375 15.378906 52.691406 15.152344 52.691406 C 14.921875 52.691406 14.726562 52.609375 14.566406 52.449219 C 14.40625 52.285156 14.324219 52.089844 14.324219 51.863281 C 14.324219 51.636719 14.40625 51.441406 14.566406 51.277344 C 14.726562 51.117188 14.921875 51.035156 15.152344 51.035156 C 15.378906 51.035156 15.574219 51.117188 15.734375 51.277344 C 15.898438 51.441406 15.976562 51.636719 15.976562 51.863281 Z M 15.976562 51.863281 " fill-opacity="1" fill-rule="nonzero"/><path fill="#1c73b7" d="M 21.917969 51.863281 C 21.917969 52.089844 21.835938 52.285156 21.675781 52.449219 C 21.511719 52.609375 21.316406 52.691406 21.089844 52.691406 C 20.863281 52.691406 20.667969 52.609375 20.503906 52.449219 C 20.34375 52.285156 20.261719 52.089844 20.261719 51.863281 C 20.261719 51.636719 20.34375 51.441406 20.503906 51.277344 C 20.667969 51.117188 20.863281 51.035156 21.089844 51.035156 C 21.316406 51.035156 21.511719 51.117188 21.675781 51.277344 C 21.835938 51.441406 21.917969 51.636719 21.917969 51.863281 Z M 21.917969 51.863281 " fill-opacity="1" fill-rule="nonzero"/><path fill="#1c73b7" d="M 27.855469 51.863281 C 27.855469 52.089844 27.773438 52.285156 27.613281 52.449219 C 27.453125 52.609375 27.257812 52.691406 27.027344 52.691406 C 26.800781 52.691406 26.605469 52.609375 26.445312 52.449219 C 26.28125 52.285156 26.203125 52.089844 26.203125 51.863281 C 26.203125 51.636719 26.28125 51.441406 26.445312 51.277344 C 26.605469 51.117188 26.800781 51.035156 27.027344 51.035156 C 27.257812 51.035156 27.453125 51.117188 27.613281 51.277344 C 27.773438 51.441406 27.855469 51.636719 27.855469 51.863281 Z M 27.855469 51.863281 " fill-opacity="1" fill-rule="nonzero"/><path fill="#1c73b7" d="M 33.792969 51.863281 C 33.792969 52.089844 33.714844 52.285156 33.550781 52.449219 C 33.390625 52.609375 33.195312 52.691406 32.96875 52.691406 C 32.738281 52.691406 32.542969 52.609375 32.382812 52.449219 C 32.222656 52.285156 32.140625 52.089844 32.140625 51.863281 C 32.140625 51.636719 32.222656 51.441406 32.382812 51.277344 C 32.542969 51.117188 32.738281 51.035156 32.96875 51.035156 C 33.195312 51.035156 33.390625 51.117188 33.550781 51.277344 C 33.714844 51.441406 33.792969 51.636719 33.792969 51.863281 Z M 33.792969 51.863281 " fill-opacity="1" fill-rule="nonzero"/><path fill="#1c73b7" d="M 39.734375 51.863281 C 39.734375 52.089844 39.652344 52.285156 39.492188 52.449219 C 39.328125 52.609375 39.132812 52.691406 38.90625 52.691406 C 38.679688 52.691406 38.484375 52.609375 38.320312 52.449219 C 38.160156 52.285156 38.078125 52.089844 38.078125 51.863281 C 38.078125 51.636719 38.160156 51.441406 38.320312 51.277344 C 38.484375 51.117188 38.679688 51.035156 38.90625 51.035156 C 39.132812 51.035156 39.328125 51.117188 39.492188 51.277344 C 39.652344 51.441406 39.734375 51.636719 39.734375 51.863281 Z M 39.734375 51.863281 " fill-opacity="1" fill-rule="nonzero"/><path fill="#1c73b7" d="M 45.671875 51.863281 C 45.671875 52.089844 45.589844 52.285156 45.429688 52.449219 C 45.269531 52.609375 45.074219 52.691406 44.84375 52.691406 C 44.617188 52.691406 44.421875 52.609375 44.261719 52.449219 C 44.097656 52.285156 44.019531 52.089844 44.019531 51.863281 C 44.019531 51.636719 44.097656 51.441406 44.261719 51.277344 C 44.421875 51.117188 44.617188 51.035156 44.84375 51.035156 C 45.074219 51.035156 45.269531 51.117188 45.429688 51.277344 C 45.589844 51.441406 45.671875 51.636719 45.671875 51.863281 Z M 45.671875 51.863281 " fill-opacity="1" fill-rule="nonzero"/><path fill="#1c73b7" d="M 51.609375 51.863281 C 51.609375 52.089844 51.53125 52.285156 51.367188 52.449219 C 51.207031 52.609375 51.011719 52.691406 50.785156 52.691406 C 50.554688 52.691406 50.359375 52.609375 50.199219 52.449219 C 50.039062 52.285156 49.957031 52.089844 49.957031 51.863281 C 49.957031 51.636719 50.039062 51.441406 50.199219 51.277344 C 50.359375 51.117188 50.554688 51.035156 50.785156 51.035156 C 51.011719 51.035156 51.207031 51.117188 51.367188 51.277344 C 51.53125 51.441406 51.609375 51.636719 51.609375 51.863281 Z M 51.609375 51.863281 " fill-opacity="1" fill-rule="nonzero"/><g clip-path="url(#dbeaf6bc83)"><path fill="#1c73b7" d="M 57.550781 51.863281 C 57.550781 52.089844 57.46875 52.285156 57.308594 52.449219 C 57.144531 52.609375 56.949219 52.691406 56.722656 52.691406 C 56.496094 52.691406 56.300781 52.609375 56.136719 52.449219 C 55.976562 52.285156 55.894531 52.089844 55.894531 51.863281 C 55.894531 51.636719 55.976562 51.441406 56.136719 51.277344 C 56.300781 51.117188 56.496094 51.035156 56.722656 51.035156 C 56.949219 51.035156 57.144531 51.117188 57.308594 51.277344 C 57.46875 51.441406 57.550781 51.636719 57.550781 51.863281 Z M 57.550781 51.863281 " fill-opacity="1" fill-rule="nonzero"/></g><g clip-path="url(#370f7c87a7)"><path fill="#1c73b7" d="M 4.101562 56.722656 C 4.101562 56.949219 4.019531 57.144531 3.859375 57.308594 C 3.695312 57.46875 3.503906 57.550781 3.273438 57.550781 C 3.046875 57.550781 2.851562 57.46875 2.6875 57.308594 C 2.527344 57.144531 2.449219 56.949219 2.449219 56.722656 C 2.449219 56.496094 2.527344 56.300781 2.6875 56.136719 C 2.851562 55.976562 3.046875 55.894531 3.273438 55.894531 C 3.503906 55.894531 3.695312 55.976562 3.859375 56.136719 C 4.019531 56.300781 4.101562 56.496094 4.101562 56.722656 Z M 4.101562 56.722656 " fill-opacity="1" fill-rule="nonzero"/></g><g clip-path="url(#61f652e9ea)"><path fill="#1c73b7" d="M 10.039062 56.722656 C 10.039062 56.949219 9.957031 57.144531 9.796875 57.308594 C 9.636719 57.46875 9.441406 57.550781 9.210938 57.550781 C 8.984375 57.550781 8.789062 57.46875 8.628906 57.308594 C 8.464844 57.144531 8.386719 56.949219 8.386719 56.722656 C 8.386719 56.496094 8.464844 56.300781 8.628906 56.136719 C 8.789062 55.976562 8.984375 55.894531 9.210938 55.894531 C 9.441406 55.894531 9.636719 55.976562 9.796875 56.136719 C 9.957031 56.300781 10.039062 56.496094 10.039062 56.722656 Z M 10.039062 56.722656 " fill-opacity="1" fill-rule="nonzero"/></g><g clip-path="url(#2ca4238c02)"><path fill="#1c73b7" d="M 15.976562 56.722656 C 15.976562 56.949219 15.898438 57.144531 15.734375 57.308594 C 15.574219 57.46875 15.378906 57.550781 15.152344 57.550781 C 14.921875 57.550781 14.726562 57.46875 14.566406 57.308594 C 14.40625 57.144531 14.324219 56.949219 14.324219 56.722656 C 14.324219 56.496094 14.40625 56.300781 14.566406 56.136719 C 14.726562 55.976562 14.921875 55.894531 15.152344 55.894531 C 15.378906 55.894531 15.574219 55.976562 15.734375 56.136719 C 15.898438 56.300781 15.976562 56.496094 15.976562 56.722656 Z M 15.976562 56.722656 " fill-opacity="1" fill-rule="nonzero"/></g><g clip-path="url(#62c5799364)"><path fill="#1c73b7" d="M 21.917969 56.722656 C 21.917969 56.949219 21.835938 57.144531 21.675781 57.308594 C 21.511719 57.46875 21.316406 57.550781 21.089844 57.550781 C 20.863281 57.550781 20.667969 57.46875 20.503906 57.308594 C 20.34375 57.144531 20.261719 56.949219 20.261719 56.722656 C 20.261719 56.496094 20.34375 56.300781 20.503906 56.136719 C 20.667969 55.976562 20.863281 55.894531 21.089844 55.894531 C 21.316406 55.894531 21.511719 55.976562 21.675781 56.136719 C 21.835938 56.300781 21.917969 56.496094 21.917969 56.722656 Z M 21.917969 56.722656 " fill-opacity="1" fill-rule="nonzero"/></g><g clip-path="url(#764f393298)"><path fill="#1c73b7" d="M 27.855469 56.722656 C 27.855469 56.949219 27.773438 57.144531 27.613281 57.308594 C 27.453125 57.46875 27.257812 57.550781 27.027344 57.550781 C 26.800781 57.550781 26.605469 57.46875 26.445312 57.308594 C 26.28125 57.144531 26.203125 56.949219 26.203125 56.722656 C 26.203125 56.496094 26.28125 56.300781 26.445312 56.136719 C 26.605469 55.976562 26.800781 55.894531 27.027344 55.894531 C 27.257812 55.894531 27.453125 55.976562 27.613281 56.136719 C 27.773438 56.300781 27.855469 56.496094 27.855469 56.722656 Z M 27.855469 56.722656 " fill-opacity="1" fill-rule="nonzero"/></g><g clip-path="url(#24fcd0f98c)"><path fill="#1c73b7" d="M 33.792969 56.722656 C 33.792969 56.949219 33.714844 57.144531 33.550781 57.308594 C 33.390625 57.46875 33.195312 57.550781 32.96875 57.550781 C 32.738281 57.550781 32.542969 57.46875 32.382812 57.308594 C 32.222656 57.144531 32.140625 56.949219 32.140625 56.722656 C 32.140625 56.496094 32.222656 56.300781 32.382812 56.136719 C 32.542969 55.976562 32.738281 55.894531 32.96875 55.894531 C 33.195312 55.894531 33.390625 55.976562 33.550781 56.136719 C 33.714844 56.300781 33.792969 56.496094 33.792969 56.722656 Z M 33.792969 56.722656 " fill-opacity="1" fill-rule="nonzero"/></g><g clip-path="url(#b335fa7988)"><path fill="#1c73b7" d="M 39.734375 56.722656 C 39.734375 56.949219 39.652344 57.144531 39.492188 57.308594 C 39.328125 57.46875 39.132812 57.550781 38.90625 57.550781 C 38.679688 57.550781 38.484375 57.46875 38.320312 57.308594 C 38.160156 57.144531 38.078125 56.949219 38.078125 56.722656 C 38.078125 56.496094 38.160156 56.300781 38.320312 56.136719 C 38.484375 55.976562 38.679688 55.894531 38.90625 55.894531 C 39.132812 55.894531 39.328125 55.976562 39.492188 56.136719 C 39.652344 56.300781 39.734375 56.496094 39.734375 56.722656 Z M 39.734375 56.722656 " fill-opacity="1" fill-rule="nonzero"/></g><g clip-path="url(#0084e94e61)"><path fill="#1c73b7" d="M 45.671875 56.722656 C 45.671875 56.949219 45.589844 57.144531 45.429688 57.308594 C 45.269531 57.46875 45.074219 57.550781 44.84375 57.550781 C 44.617188 57.550781 44.421875 57.46875 44.261719 57.308594 C 44.097656 57.144531 44.019531 56.949219 44.019531 56.722656 C 44.019531 56.496094 44.097656 56.300781 44.261719 56.136719 C 44.421875 55.976562 44.617188 55.894531 44.84375 55.894531 C 45.074219 55.894531 45.269531 55.976562 45.429688 56.136719 C 45.589844 56.300781 45.671875 56.496094 45.671875 56.722656 Z M 45.671875 56.722656 " fill-opacity="1" fill-rule="nonzero"/></g><g clip-path="url(#d75e486b35)"><path fill="#1c73b7" d="M 51.609375 56.722656 C 51.609375 56.949219 51.53125 57.144531 51.367188 57.308594 C 51.207031 57.46875 51.011719 57.550781 50.785156 57.550781 C 50.554688 57.550781 50.359375 57.46875 50.199219 57.308594 C 50.039062 57.144531 49.957031 56.949219 49.957031 56.722656 C 49.957031 56.496094 50.039062 56.300781 50.199219 56.136719 C 50.359375 55.976562 50.554688 55.894531 50.785156 55.894531 C 51.011719 55.894531 51.207031 55.976562 51.367188 56.136719 C 51.53125 56.300781 51.609375 56.496094 51.609375 56.722656 Z M 51.609375 56.722656 " fill-opacity="1" fill-rule="nonzero"/></g><g clip-path="url(#c99f39c358)"><path fill="#1c73b7" d="M 57.550781 56.722656 C 57.550781 56.949219 57.46875 57.144531 57.308594 57.308594 C 57.144531 57.46875 56.949219 57.550781 56.722656 57.550781 C 56.496094 57.550781 56.300781 57.46875 56.136719 57.308594 C 55.976562 57.144531 55.894531 56.949219 55.894531 56.722656 C 55.894531 56.496094 55.976562 56.300781 56.136719 56.136719 C 56.300781 55.976562 56.496094 55.894531 56.722656 55.894531 C 56.949219 55.894531 57.144531 55.976562 57.308594 56.136719 C 57.46875 56.300781 57.550781 56.496094 57.550781 56.722656 Z M 57.550781 56.722656 " fill-opacity="1" fill-rule="nonzero"/></g></svg>