<svg xmlns="http://www.w3.org/2000/svg" xmlns:xlink="http://www.w3.org/1999/xlink" width="80" zoomAndPan="magnify" viewBox="0 0 60 60" height="80" preserveAspectRatio="xMidYMid meet" version="1.0"><path fill="#f6f6f6" d="M 7.894531 41.050781 L 18.949219 41.050781 L 18.949219 52.105469 C 18.949219 52.625 19 53.136719 19.101562 53.644531 C 19.203125 54.152344 19.351562 54.644531 19.550781 55.125 C 19.75 55.605469 19.992188 56.058594 20.28125 56.488281 C 20.570312 56.921875 20.894531 57.320312 21.261719 57.683594 C 21.628906 58.050781 22.027344 58.378906 22.457031 58.667969 C 22.890625 58.953125 23.34375 59.199219 23.824219 59.398438 C 24.300781 59.59375 24.792969 59.746094 25.300781 59.847656 C 25.8125 59.949219 26.324219 60 26.84375 60 L 33.15625 60 C 33.675781 60 34.1875 59.949219 34.699219 59.847656 C 35.207031 59.746094 35.699219 59.59375 36.175781 59.398438 C 36.65625 59.199219 37.109375 58.953125 37.542969 58.667969 C 37.972656 58.378906 38.371094 58.050781 38.738281 57.683594 C 39.105469 57.320312 39.429688 56.921875 39.71875 56.488281 C 40.007812 56.058594 40.25 55.605469 40.449219 55.125 C 40.648438 54.644531 40.796875 54.152344 40.898438 53.644531 C 41 53.136719 41.050781 52.625 41.050781 52.105469 L 41.050781 41.050781 L 52.105469 41.050781 C 52.625 41.050781 53.136719 41 53.644531 40.898438 C 54.152344 40.796875 54.644531 40.648438 55.125 40.449219 C 55.605469 40.25 56.058594 40.007812 56.488281 39.71875 C 56.921875 39.429688 57.320312 39.105469 57.683594 38.738281 C 58.050781 38.371094 58.378906 37.972656 58.667969 37.542969 C 58.953125 37.109375 59.199219 36.65625 59.398438 36.175781 C 59.59375 35.699219 59.746094 35.207031 59.847656 34.699219 C 59.949219 34.1875 60 33.675781 60 33.15625 L 60 26.84375 C 60 26.324219 59.949219 25.8125 59.847656 25.300781 C 59.746094 24.792969 59.59375 24.300781 59.398438 23.824219 C 59.199219 23.34375 58.953125 22.890625 58.667969 22.457031 C 58.378906 22.027344 58.050781 21.628906 57.683594 21.261719 C 57.320312 20.894531 56.921875 20.570312 56.488281 20.28125 C 56.058594 19.992188 55.605469 19.75 55.125 19.550781 C 54.644531 19.351562 54.152344 19.203125 53.644531 19.101562 C 53.136719 19 52.625 18.949219 52.105469 18.949219 L 41.050781 18.949219 L 41.050781 7.894531 C 41.050781 7.375 41 6.863281 40.898438 6.355469 C 40.796875 5.847656 40.648438 5.355469 40.449219 4.875 C 40.25 4.394531 40.007812 3.941406 39.71875 3.511719 C 39.429688 3.078125 39.105469 2.679688 38.738281 2.316406 C 38.371094 1.949219 37.972656 1.621094 37.542969 1.332031 C 37.109375 1.046875 36.65625 0.800781 36.175781 0.601562 C 35.699219 0.40625 35.207031 0.253906 34.699219 0.152344 C 34.1875 0.0507812 33.675781 0 33.15625 0 L 26.84375 0 C 26.324219 0 25.8125 0.0507812 25.300781 0.152344 C 24.792969 0.253906 24.300781 0.40625 23.824219 0.601562 C 23.34375 0.800781 22.890625 1.046875 22.457031 1.332031 C 22.027344 1.621094 21.628906 1.949219 21.261719 2.316406 C 20.894531 2.679688 20.570312 3.078125 20.28125 3.511719 C 19.992188 3.941406 19.75 4.394531 19.550781 4.875 C 19.351562 5.355469 19.203125 5.847656 19.101562 6.355469 C 19 6.863281 18.949219 7.375 18.949219 7.894531 L 18.949219 18.949219 L 7.894531 18.949219 C 7.375 18.949219 6.863281 19 6.355469 19.101562 C 5.847656 19.203125 5.355469 19.351562 4.875 19.550781 C 4.394531 19.75 3.941406 19.992188 3.511719 20.28125 C 3.078125 20.570312 2.679688 20.894531 2.316406 21.261719 C 1.949219 21.628906 1.621094 22.027344 1.332031 22.457031 C 1.046875 22.890625 0.800781 23.34375 0.601562 23.824219 C 0.40625 24.300781 0.253906 24.792969 0.152344 25.300781 C 0.0507812 25.8125 0 26.324219 0 26.84375 L 0 33.15625 C 0 33.675781 0.0507812 34.1875 0.152344 34.699219 C 0.253906 35.207031 0.40625 35.699219 0.601562 36.175781 C 0.800781 36.65625 1.046875 37.109375 1.332031 37.542969 C 1.621094 37.972656 1.949219 38.371094 2.316406 38.738281 C 2.679688 39.105469 3.078125 39.429688 3.511719 39.71875 C 3.941406 40.007812 4.394531 40.25 4.875 40.449219 C 5.355469 40.648438 5.847656 40.796875 6.355469 40.898438 C 6.863281 41 7.375 41.050781 7.894531 41.050781 Z M 3.15625 26.84375 C 3.160156 26.53125 3.1875 26.222656 3.25 25.917969 C 3.3125 25.613281 3.402344 25.316406 3.519531 25.03125 C 3.640625 24.742188 3.785156 24.46875 3.957031 24.210938 C 4.128906 23.953125 4.328125 23.714844 4.546875 23.496094 C 4.765625 23.273438 5.003906 23.078125 5.265625 22.90625 C 5.523438 22.730469 5.796875 22.585938 6.082031 22.46875 C 6.371094 22.347656 6.667969 22.257812 6.972656 22.195312 C 7.277344 22.136719 7.582031 22.105469 7.894531 22.105469 L 20.527344 22.105469 C 20.734375 22.105469 20.9375 22.066406 21.128906 21.984375 C 21.324219 21.90625 21.496094 21.792969 21.644531 21.644531 C 21.792969 21.496094 21.90625 21.324219 21.984375 21.128906 C 22.066406 20.9375 22.105469 20.734375 22.105469 20.527344 L 22.105469 7.894531 C 22.105469 7.582031 22.136719 7.277344 22.195312 6.972656 C 22.257812 6.667969 22.347656 6.371094 22.46875 6.082031 C 22.585938 5.796875 22.730469 5.523438 22.90625 5.265625 C 23.078125 5.003906 23.273438 4.765625 23.496094 4.546875 C 23.714844 4.328125 23.953125 4.128906 24.210938 3.957031 C 24.46875 3.785156 24.742188 3.640625 25.03125 3.519531 C 25.316406 3.402344 25.613281 3.3125 25.917969 3.25 C 26.222656 3.1875 26.53125 3.160156 26.84375 3.15625 L 33.15625 3.15625 C 33.46875 3.160156 33.777344 3.1875 34.082031 3.25 C 34.386719 3.3125 34.683594 3.402344 34.96875 3.519531 C 35.257812 3.640625 35.53125 3.785156 35.789062 3.957031 C 36.046875 4.128906 36.285156 4.328125 36.503906 4.546875 C 36.726562 4.765625 36.921875 5.003906 37.09375 5.265625 C 37.269531 5.523438 37.414062 5.796875 37.53125 6.082031 C 37.652344 6.371094 37.742188 6.667969 37.804688 6.972656 C 37.863281 7.277344 37.894531 7.582031 37.894531 7.894531 L 37.894531 20.527344 C 37.894531 20.734375 37.933594 20.9375 38.015625 21.128906 C 38.09375 21.324219 38.207031 21.496094 38.355469 21.644531 C 38.503906 21.792969 38.675781 21.90625 38.871094 21.984375 C 39.0625 22.066406 39.265625 22.105469 39.472656 22.105469 L 52.105469 22.105469 C 52.417969 22.105469 52.722656 22.136719 53.027344 22.195312 C 53.332031 22.257812 53.628906 22.347656 53.917969 22.46875 C 54.203125 22.585938 54.476562 22.730469 54.734375 22.90625 C 54.996094 23.078125 55.234375 23.273438 55.453125 23.496094 C 55.671875 23.714844 55.871094 23.953125 56.042969 24.210938 C 56.214844 24.46875 56.359375 24.742188 56.480469 25.03125 C 56.597656 25.316406 56.6875 25.613281 56.75 25.917969 C 56.8125 26.222656 56.839844 26.53125 56.84375 26.84375 L 56.84375 33.15625 C 56.839844 33.46875 56.8125 33.777344 56.75 34.082031 C 56.6875 34.386719 56.597656 34.683594 56.480469 34.96875 C 56.359375 35.257812 56.214844 35.53125 56.042969 35.789062 C 55.871094 36.046875 55.671875 36.285156 55.453125 36.503906 C 55.234375 36.726562 54.996094 36.921875 54.734375 37.09375 C 54.476562 37.269531 54.203125 37.414062 53.917969 37.53125 C 53.628906 37.652344 53.332031 37.742188 53.027344 37.804688 C 52.722656 37.863281 52.417969 37.894531 52.105469 37.894531 L 39.472656 37.894531 C 39.265625 37.894531 39.0625 37.933594 38.871094 38.015625 C 38.675781 38.09375 38.503906 38.207031 38.355469 38.355469 C 38.207031 38.503906 38.09375 38.675781 38.015625 38.871094 C 37.933594 39.0625 37.894531 39.265625 37.894531 39.472656 L 37.894531 52.105469 C 37.894531 52.417969 37.863281 52.722656 37.804688 53.027344 C 37.742188 53.332031 37.652344 53.628906 37.53125 53.917969 C 37.414062 54.203125 37.269531 54.476562 37.09375 54.734375 C 36.921875 54.996094 36.726562 55.234375 36.503906 55.453125 C 36.285156 55.671875 36.046875 55.871094 35.789062 56.042969 C 35.53125 56.214844 35.257812 56.359375 34.96875 56.480469 C 34.683594 56.597656 34.386719 56.6875 34.082031 56.75 C 33.777344 56.8125 33.46875 56.839844 33.15625 56.84375 L 26.84375 56.84375 C 26.53125 56.839844 26.222656 56.8125 25.917969 56.75 C 25.613281 56.6875 25.316406 56.597656 25.03125 56.480469 C 24.742188 56.359375 24.46875 56.214844 24.210938 56.042969 C 23.953125 55.871094 23.714844 55.671875 23.496094 55.453125 C 23.273438 55.234375 23.078125 54.996094 22.90625 54.734375 C 22.730469 54.476562 22.585938 54.203125 22.46875 53.917969 C 22.347656 53.628906 22.257812 53.332031 22.195312 53.027344 C 22.136719 52.722656 22.105469 52.417969 22.105469 52.105469 L 22.105469 39.472656 C 22.105469 39.265625 22.066406 39.0625 21.984375 38.871094 C 21.90625 38.675781 21.792969 38.503906 21.644531 38.355469 C 21.496094 38.207031 21.324219 38.09375 21.128906 38.015625 C 20.9375 37.933594 20.734375 37.894531 20.527344 37.894531 L 7.894531 37.894531 C 7.582031 37.894531 7.277344 37.863281 6.972656 37.804688 C 6.667969 37.742188 6.371094 37.652344 6.082031 37.53125 C 5.796875 37.414062 5.523438 37.269531 5.265625 37.09375 C 5.003906 36.921875 4.765625 36.726562 4.546875 36.503906 C 4.328125 36.285156 4.128906 36.046875 3.957031 35.789062 C 3.785156 35.53125 3.640625 35.257812 3.519531 34.96875 C 3.402344 34.683594 3.3125 34.386719 3.25 34.082031 C 3.1875 33.777344 3.160156 33.46875 3.15625 33.15625 Z M 3.15625 26.84375 " fill-opacity="1" fill-rule="nonzero"/></svg>