<svg xmlns="http://www.w3.org/2000/svg" xmlns:xlink="http://www.w3.org/1999/xlink" width="63" zoomAndPan="magnify" viewBox="0 0 47.25 30.000001" height="40" preserveAspectRatio="xMidYMid meet" version="1.0"><defs><filter x="0%" y="0%" width="100%" height="100%" id="df5550e58d"><feColorMatrix values="0 0 0 0 1 0 0 0 0 1 0 0 0 0 1 0 0 0 1 0" color-interpolation-filters="sRGB"/></filter><clipPath id="1b3a31a8d9"><path d="M 0.398438 7 L 18 7 L 18 29 L 0.398438 29 Z M 0.398438 7 " clip-rule="nonzero"/></clipPath><mask id="2903f03977"><g filter="url(#df5550e58d)"><rect x="-4.725" width="56.7" fill="#000000" y="-3" height="36.000001" fill-opacity="0.78"/></g></mask><clipPath id="d06b48bda3"><path d="M 5 0.320312 L 17.710938 0.320312 L 17.710938 13 L 5 13 Z M 5 0.320312 " clip-rule="nonzero"/></clipPath><clipPath id="66a8158d85"><path d="M 0.398438 8 L 7 8 L 7 19 L 0.398438 19 Z M 0.398438 8 " clip-rule="nonzero"/></clipPath><clipPath id="c5093d246a"><path d="M 7 14 L 15 14 L 15 21.101562 L 7 21.101562 Z M 7 14 " clip-rule="nonzero"/></clipPath><clipPath id="8bfc58805e"><rect x="0" width="18" y="0" height="22"/></clipPath><clipPath id="519acdcb2b"><path d="M 29 1.164062 L 45.980469 1.164062 L 45.980469 19 L 29 19 Z M 29 1.164062 " clip-rule="nonzero"/></clipPath><clipPath id="09a07b0afc"><path d="M 17.671875 12 L 32 12 L 32 27 L 17.671875 27 Z M 17.671875 12 " clip-rule="nonzero"/></clipPath><clipPath id="5a26ab7f59"><path d="M 31 20 L 42 20 L 42 29.03125 L 31 29.03125 Z M 31 20 " clip-rule="nonzero"/></clipPath></defs><g clip-path="url(#1b3a31a8d9)"><g mask="url(#2903f03977)"><g transform="matrix(1, 0, 0, 1, 0, 7)"><g clip-path="url(#8bfc58805e)"><g clip-path="url(#d06b48bda3)"><path fill="#1c74b7" d="M 16.285156 3.625 L 14.375 3.625 L 14.375 1.714844 C 14.375 0.953125 13.753906 0.332031 12.992188 0.332031 L 10.152344 0.332031 C 9.785156 0.332031 9.4375 0.476562 9.175781 0.738281 C 8.914062 1 8.773438 1.34375 8.773438 1.714844 L 8.773438 3.625 L 6.859375 3.625 C 6.097656 3.625 5.480469 4.242188 5.480469 5.003906 L 5.480469 7.84375 C 5.480469 8.601562 6.097656 9.222656 6.859375 9.222656 L 8.773438 9.222656 L 8.773438 11.132812 C 8.773438 11.894531 9.390625 12.511719 10.152344 12.511719 L 12.992188 12.511719 C 13.753906 12.511719 14.375 11.894531 14.375 11.132812 L 14.375 9.222656 L 16.285156 9.222656 C 17.046875 9.222656 17.667969 8.601562 17.667969 7.839844 L 17.667969 5.003906 C 17.667969 4.242188 17.046875 3.625 16.285156 3.625 Z M 13.65625 8.144531 C 13.457031 8.144531 13.292969 8.304688 13.292969 8.503906 L 13.292969 11.132812 C 13.292969 11.300781 13.160156 11.433594 12.992188 11.433594 L 10.152344 11.433594 C 9.988281 11.433594 9.851562 11.300781 9.851562 11.132812 L 9.851562 8.503906 C 9.851562 8.304688 9.691406 8.144531 9.492188 8.144531 L 6.859375 8.144531 C 6.695312 8.144531 6.558594 8.007812 6.558594 7.839844 L 6.558594 5.003906 C 6.558594 4.839844 6.695312 4.703125 6.859375 4.703125 L 9.492188 4.703125 C 9.691406 4.703125 9.851562 4.542969 9.851562 4.34375 L 9.851562 1.714844 C 9.851562 1.546875 9.988281 1.410156 10.152344 1.410156 L 12.992188 1.410156 C 13.160156 1.410156 13.292969 1.546875 13.292969 1.714844 L 13.292969 4.34375 C 13.292969 4.542969 13.457031 4.703125 13.65625 4.703125 L 16.285156 4.703125 C 16.453125 4.703125 16.585938 4.839844 16.585938 5.003906 L 16.585938 7.839844 C 16.585938 8.007812 16.453125 8.144531 16.285156 8.144531 Z M 13.65625 8.144531 " fill-opacity="1" fill-rule="nonzero"/></g><g clip-path="url(#66a8158d85)"><path fill="#1c74b7" d="M 5.621094 11.226562 L 4.3125 11.226562 L 4.3125 9.921875 C 4.3125 9.207031 3.730469 8.625 3.015625 8.625 L 1.289062 8.625 C 0.574219 8.625 -0.0078125 9.207031 -0.0078125 9.921875 L -0.0078125 11.226562 L -1.3125 11.226562 C -2.03125 11.226562 -2.613281 11.808594 -2.613281 12.527344 L -2.613281 14.25 C -2.613281 14.964844 -2.03125 15.546875 -1.3125 15.546875 L -0.0078125 15.546875 L -0.0078125 16.855469 C -0.0078125 17.570312 0.574219 18.152344 1.289062 18.152344 L 3.015625 18.152344 C 3.363281 18.152344 3.6875 18.015625 3.933594 17.769531 C 4.179688 17.527344 4.3125 17.199219 4.3125 16.855469 L 4.3125 15.546875 L 5.621094 15.546875 C 6.335938 15.546875 6.917969 14.964844 6.917969 14.25 L 6.917969 12.527344 C 6.917969 11.808594 6.335938 11.226562 5.621094 11.226562 Z M 3.234375 14.828125 L 3.234375 16.855469 C 3.234375 16.976562 3.136719 17.074219 3.015625 17.074219 L 1.289062 17.074219 C 1.167969 17.074219 1.070312 16.976562 1.070312 16.855469 L 1.070312 14.828125 C 1.070312 14.628906 0.910156 14.46875 0.710938 14.46875 L -1.3125 14.46875 C -1.4375 14.46875 -1.535156 14.371094 -1.535156 14.25 L -1.535156 12.527344 C -1.535156 12.40625 -1.433594 12.304688 -1.3125 12.304688 L 0.710938 12.308594 C 0.910156 12.308594 1.070312 12.144531 1.070312 11.945312 L 1.070312 9.921875 C 1.070312 9.800781 1.167969 9.703125 1.289062 9.703125 L 3.015625 9.703125 C 3.136719 9.703125 3.234375 9.800781 3.234375 9.921875 L 3.234375 11.945312 C 3.234375 12.144531 3.394531 12.308594 3.59375 12.308594 L 5.621094 12.308594 C 5.742188 12.308594 5.839844 12.40625 5.839844 12.527344 L 5.839844 14.25 C 5.839844 14.371094 5.742188 14.46875 5.621094 14.46875 L 3.59375 14.46875 C 3.394531 14.46875 3.234375 14.628906 3.234375 14.828125 Z M 3.234375 14.828125 " fill-opacity="1" fill-rule="nonzero"/></g><g clip-path="url(#c5093d246a)"><path fill="#1c74b7" d="M 12.894531 15.894531 L 12.5 15.894531 L 12.5 15.496094 C 12.5 14.878906 11.996094 14.375 11.375 14.375 L 10.035156 14.375 C 9.414062 14.375 8.910156 14.878906 8.910156 15.496094 L 8.910156 15.894531 L 8.511719 15.894531 C 7.890625 15.894531 7.386719 16.398438 7.386719 17.019531 L 7.386719 18.359375 C 7.386719 18.980469 7.890625 19.484375 8.511719 19.484375 L 8.910156 19.484375 L 8.910156 19.878906 C 8.910156 20.5 9.414062 21.003906 10.035156 21.003906 L 11.375 21.003906 C 11.996094 21.003906 12.5 20.5 12.5 19.878906 L 12.5 19.484375 L 12.894531 19.484375 C 13.515625 19.484375 14.023438 18.980469 14.023438 18.359375 L 14.023438 17.019531 C 14.023438 16.398438 13.515625 15.894531 12.894531 15.894531 Z M 11.78125 18.40625 C 11.582031 18.40625 11.421875 18.566406 11.421875 18.765625 L 11.421875 19.878906 C 11.421875 19.902344 11.398438 19.925781 11.375 19.925781 L 10.035156 19.925781 C 10.007812 19.925781 9.988281 19.902344 9.988281 19.878906 L 9.988281 18.765625 C 9.988281 18.566406 9.828125 18.40625 9.628906 18.40625 L 8.511719 18.40625 C 8.488281 18.40625 8.46875 18.382812 8.46875 18.359375 L 8.46875 17.019531 C 8.46875 16.992188 8.488281 16.972656 8.511719 16.972656 L 9.628906 16.972656 C 9.828125 16.972656 9.988281 16.8125 9.988281 16.613281 L 9.988281 15.5 C 9.988281 15.472656 10.007812 15.453125 10.035156 15.453125 L 11.375 15.453125 C 11.398438 15.453125 11.421875 15.472656 11.421875 15.5 L 11.421875 16.613281 C 11.421875 16.8125 11.582031 16.972656 11.78125 16.972656 L 12.898438 16.972656 C 12.921875 16.972656 12.941406 16.992188 12.941406 17.019531 L 12.941406 18.359375 C 12.941406 18.382812 12.921875 18.40625 12.898438 18.40625 Z M 11.78125 18.40625 " fill-opacity="1" fill-rule="nonzero"/></g></g></g></g></g><g clip-path="url(#519acdcb2b)"><path fill="#1c73b7" d="M 44.179688 5.800781 L 41.5 5.800781 L 41.5 3.121094 C 41.5 2.050781 40.628906 1.183594 39.5625 1.183594 L 35.578125 1.183594 C 35.0625 1.183594 34.578125 1.386719 34.210938 1.75 C 33.84375 2.117188 33.640625 2.605469 33.640625 3.121094 L 33.640625 5.800781 L 30.960938 5.800781 C 29.894531 5.800781 29.023438 6.667969 29.023438 7.738281 L 29.023438 11.714844 C 29.023438 12.785156 29.894531 13.652344 30.960938 13.652344 L 33.640625 13.652344 L 33.640625 16.332031 C 33.640625 17.398438 34.511719 18.269531 35.578125 18.269531 L 39.5625 18.269531 C 40.628906 18.269531 41.5 17.398438 41.5 16.332031 L 41.5 13.652344 L 44.179688 13.652344 C 45.25 13.652344 46.117188 12.785156 46.117188 11.714844 L 46.117188 7.738281 C 46.117188 6.667969 45.25 5.800781 44.179688 5.800781 Z M 40.488281 12.140625 C 40.210938 12.140625 39.984375 12.363281 39.984375 12.644531 L 39.984375 16.332031 C 39.984375 16.566406 39.796875 16.753906 39.5625 16.753906 L 35.582031 16.753906 C 35.347656 16.753906 35.15625 16.566406 35.15625 16.332031 L 35.15625 12.644531 C 35.15625 12.363281 34.929688 12.140625 34.652344 12.140625 L 30.960938 12.140625 C 30.726562 12.140625 30.539062 11.949219 30.539062 11.714844 L 30.539062 7.738281 C 30.539062 7.503906 30.726562 7.3125 30.960938 7.3125 L 34.652344 7.3125 C 34.929688 7.3125 35.15625 7.085938 35.15625 6.808594 L 35.15625 3.121094 C 35.15625 2.886719 35.34375 2.695312 35.578125 2.695312 L 39.5625 2.695312 C 39.796875 2.695312 39.984375 2.886719 39.984375 3.121094 L 39.984375 6.808594 C 39.984375 7.085938 40.210938 7.3125 40.488281 7.3125 L 44.179688 7.3125 C 44.414062 7.3125 44.605469 7.503906 44.605469 7.738281 L 44.605469 11.714844 C 44.605469 11.949219 44.414062 12.140625 44.179688 12.140625 Z M 40.488281 12.140625 " fill-opacity="1" fill-rule="nonzero"/></g><g clip-path="url(#09a07b0afc)"><path fill="#1c73b7" d="M 29.21875 16.464844 L 27.386719 16.464844 L 27.386719 14.636719 C 27.386719 13.628906 26.570312 12.8125 25.566406 12.8125 L 23.148438 12.8125 C 22.140625 12.8125 21.324219 13.628906 21.324219 14.636719 L 21.324219 16.464844 L 19.492188 16.464844 C 18.488281 16.464844 17.671875 17.28125 17.671875 18.285156 L 17.671875 20.703125 C 17.671875 21.710938 18.488281 22.527344 19.492188 22.527344 L 21.324219 22.527344 L 21.324219 24.355469 C 21.324219 25.359375 22.140625 26.175781 23.148438 26.175781 L 25.566406 26.175781 C 26.054688 26.175781 26.511719 25.988281 26.855469 25.644531 C 27.199219 25.300781 27.390625 24.84375 27.386719 24.355469 L 27.386719 22.527344 L 29.21875 22.527344 C 30.226562 22.527344 31.042969 21.710938 31.042969 20.703125 L 31.042969 18.285156 C 31.042969 17.28125 30.226562 16.464844 29.21875 16.464844 Z M 25.875 21.515625 L 25.875 24.355469 C 25.875 24.527344 25.738281 24.664062 25.566406 24.664062 L 23.148438 24.664062 C 22.976562 24.664062 22.839844 24.527344 22.839844 24.355469 L 22.839844 21.515625 C 22.839844 21.238281 22.613281 21.011719 22.335938 21.011719 L 19.492188 21.011719 C 19.324219 21.011719 19.183594 20.875 19.183594 20.703125 L 19.183594 18.285156 C 19.183594 18.117188 19.324219 17.976562 19.492188 17.976562 L 22.335938 17.980469 C 22.613281 17.980469 22.839844 17.753906 22.839844 17.472656 L 22.839844 14.636719 C 22.839844 14.464844 22.976562 14.328125 23.148438 14.328125 L 25.566406 14.328125 C 25.738281 14.328125 25.875 14.464844 25.875 14.636719 L 25.875 17.472656 C 25.875 17.753906 26.101562 17.980469 26.378906 17.980469 L 29.21875 17.980469 C 29.390625 17.980469 29.527344 18.117188 29.527344 18.285156 L 29.527344 20.703125 C 29.527344 20.875 29.390625 21.011719 29.21875 21.011719 L 26.378906 21.011719 C 26.101562 21.011719 25.875 21.238281 25.875 21.515625 Z M 25.875 21.515625 " fill-opacity="1" fill-rule="nonzero"/></g><g clip-path="url(#5a26ab7f59)"><path fill="#1c73b7" d="M 39.425781 23.011719 L 38.871094 23.011719 L 38.871094 22.453125 C 38.871094 21.585938 38.164062 20.878906 37.292969 20.878906 L 35.410156 20.878906 C 34.539062 20.878906 33.832031 21.585938 33.832031 22.453125 L 33.832031 23.011719 L 33.277344 23.011719 C 32.40625 23.011719 31.699219 23.71875 31.699219 24.585938 L 31.699219 26.46875 C 31.699219 27.335938 32.40625 28.042969 33.277344 28.042969 L 33.832031 28.042969 L 33.832031 28.601562 C 33.832031 29.46875 34.539062 30.175781 35.410156 30.175781 L 37.292969 30.175781 C 38.164062 30.175781 38.871094 29.46875 38.871094 28.601562 L 38.871094 28.042969 L 39.425781 28.042969 C 40.296875 28.042969 41.003906 27.335938 41.003906 26.46875 L 41.003906 24.585938 C 41.003906 23.71875 40.296875 23.011719 39.425781 23.011719 Z M 37.863281 26.53125 C 37.582031 26.53125 37.359375 26.757812 37.359375 27.035156 L 37.359375 28.601562 C 37.359375 28.636719 37.328125 28.664062 37.292969 28.664062 L 35.414062 28.664062 C 35.378906 28.664062 35.347656 28.636719 35.347656 28.601562 L 35.347656 27.035156 C 35.347656 26.757812 35.121094 26.53125 34.84375 26.53125 L 33.277344 26.53125 C 33.242188 26.53125 33.214844 26.503906 33.214844 26.46875 L 33.214844 24.589844 C 33.214844 24.554688 33.242188 24.523438 33.277344 24.523438 L 34.84375 24.523438 C 35.121094 24.523438 35.347656 24.296875 35.347656 24.019531 L 35.347656 22.457031 C 35.347656 22.421875 35.378906 22.390625 35.414062 22.390625 L 37.292969 22.390625 C 37.328125 22.390625 37.359375 22.421875 37.359375 22.457031 L 37.359375 24.019531 C 37.359375 24.296875 37.582031 24.523438 37.863281 24.523438 L 39.425781 24.523438 C 39.460938 24.523438 39.492188 24.554688 39.492188 24.589844 L 39.492188 26.46875 C 39.492188 26.503906 39.460938 26.53125 39.425781 26.53125 Z M 37.863281 26.53125 " fill-opacity="1" fill-rule="nonzero"/></g></svg>