<svg xmlns="http://www.w3.org/2000/svg" xmlns:xlink="http://www.w3.org/1999/xlink" width="63" zoomAndPan="magnify" viewBox="0 0 47.25 30.000001" height="40" preserveAspectRatio="xMidYMid meet" version="1.0"><defs><filter x="0%" y="0%" width="100%" height="100%" id="213e9bb0a4"><feColorMatrix values="0 0 0 0 1 0 0 0 0 1 0 0 0 0 1 0 0 0 1 0" color-interpolation-filters="sRGB"/></filter><clipPath id="7c90edbfc4"><path d="M 0.398438 0 L 46.125 0 L 46.125 29.03125 L 0.398438 29.03125 Z M 0.398438 0 " clip-rule="nonzero"/></clipPath><clipPath id="3ec71ed467"><path d="M 0.398438 4 L 24 4 L 24 29 L 0.398438 29 Z M 0.398438 4 " clip-rule="nonzero"/></clipPath><mask id="9229f5a162"><g filter="url(#213e9bb0a4)"><rect x="-4.725" width="56.7" fill="#000000" y="-3" height="36.000001" fill-opacity="0.78"/></g></mask><clipPath id="49fa14201e"><path d="M 9 0.644531 L 23.394531 0.644531 L 23.394531 15 L 9 15 Z M 9 0.644531 " clip-rule="nonzero"/></clipPath><clipPath id="34193bafb3"><path d="M 0.398438 10 L 12 10 L 12 21 L 0.398438 21 Z M 0.398438 10 " clip-rule="nonzero"/></clipPath><clipPath id="e8758c1c04"><path d="M 11 16 L 20 16 L 20 23.871094 L 11 23.871094 Z M 11 16 " clip-rule="nonzero"/></clipPath><clipPath id="b85ef3235d"><rect x="0" width="24" y="0" height="25"/></clipPath><clipPath id="07a832b219"><path d="M 30 12 L 45.980469 12 L 45.980469 28 L 30 28 Z M 30 12 " clip-rule="nonzero"/></clipPath><clipPath id="4bde0dcf92"><path d="M 20.578125 22 L 33 22 L 33 29.03125 L 20.578125 29.03125 Z M 20.578125 22 " clip-rule="nonzero"/></clipPath><clipPath id="eee0ce93fd"><path d="M 24.074219 14.515625 L 29.15625 14.515625 L 29.15625 19.328125 L 24.074219 19.328125 Z M 24.074219 14.515625 " clip-rule="nonzero"/></clipPath></defs><g clip-path="url(#7c90edbfc4)"><path fill="#ffffff" d="M 0.398438 0 L 46.125 0 L 46.125 29.03125 L 0.398438 29.03125 Z M 0.398438 0 " fill-opacity="1" fill-rule="nonzero"/><path fill="#ffffff" d="M 0.398438 0 L 46.125 0 L 46.125 29.03125 L 0.398438 29.03125 Z M 0.398438 0 " fill-opacity="1" fill-rule="nonzero"/></g><g clip-path="url(#3ec71ed467)"><g mask="url(#9229f5a162)"><g transform="matrix(1, 0, 0, 1, 0, 4)"><g clip-path="url(#b85ef3235d)"><g clip-path="url(#49fa14201e)"><path fill="#1c74b7" d="M 21.6875 4.390625 L 19.519531 4.390625 L 19.519531 2.226562 C 19.519531 1.363281 18.816406 0.660156 17.953125 0.660156 L 14.734375 0.660156 C 14.316406 0.660156 13.921875 0.824219 13.625 1.117188 C 13.328125 1.414062 13.167969 1.808594 13.167969 2.226562 L 13.167969 4.390625 L 11 4.390625 C 10.132812 4.390625 9.433594 5.09375 9.433594 5.957031 L 9.433594 9.175781 C 9.433594 10.039062 10.132812 10.742188 11 10.742188 L 13.167969 10.742188 L 13.167969 12.910156 C 13.167969 13.773438 13.867188 14.472656 14.734375 14.472656 L 17.953125 14.472656 C 18.816406 14.472656 19.519531 13.773438 19.519531 12.910156 L 19.519531 10.742188 L 21.6875 10.742188 C 22.550781 10.742188 23.253906 10.039062 23.253906 9.175781 L 23.253906 5.957031 C 23.253906 5.09375 22.550781 4.390625 21.6875 4.390625 Z M 18.703125 9.519531 C 18.476562 9.519531 18.296875 9.699219 18.296875 9.925781 L 18.296875 12.910156 C 18.296875 13.097656 18.140625 13.25 17.953125 13.25 L 14.734375 13.25 C 14.542969 13.25 14.390625 13.097656 14.390625 12.910156 L 14.390625 9.925781 C 14.390625 9.699219 14.207031 9.519531 13.984375 9.519531 L 11 9.519531 C 10.808594 9.519531 10.65625 9.363281 10.65625 9.175781 L 10.65625 5.957031 C 10.65625 5.769531 10.808594 5.617188 11 5.617188 L 13.980469 5.617188 C 14.207031 5.617188 14.390625 5.433594 14.390625 5.207031 L 14.390625 2.226562 C 14.390625 2.035156 14.542969 1.882812 14.734375 1.882812 L 17.953125 1.882812 C 18.140625 1.882812 18.296875 2.035156 18.296875 2.226562 L 18.296875 5.207031 C 18.296875 5.433594 18.476562 5.617188 18.703125 5.617188 L 21.6875 5.617188 C 21.878906 5.617188 22.03125 5.769531 22.03125 5.957031 L 22.03125 9.175781 C 22.03125 9.363281 21.878906 9.519531 21.6875 9.519531 Z M 18.703125 9.519531 " fill-opacity="1" fill-rule="nonzero"/></g><g clip-path="url(#34193bafb3)"><path fill="#1c74b7" d="M 9.589844 13.015625 L 8.109375 13.015625 L 8.109375 11.535156 C 8.109375 10.722656 7.449219 10.0625 6.636719 10.0625 L 4.679688 10.0625 C 3.867188 10.0625 3.207031 10.722656 3.207031 11.535156 L 3.207031 13.015625 L 1.726562 13.015625 C 0.914062 13.015625 0.253906 13.675781 0.253906 14.488281 L 0.253906 16.445312 C 0.253906 17.257812 0.914062 17.917969 1.726562 17.917969 L 3.207031 17.917969 L 3.207031 19.398438 C 3.207031 20.210938 3.867188 20.871094 4.679688 20.871094 L 6.636719 20.871094 C 7.03125 20.871094 7.398438 20.714844 7.679688 20.4375 C 7.957031 20.160156 8.109375 19.789062 8.109375 19.398438 L 8.109375 17.917969 L 9.589844 17.917969 C 10.402344 17.917969 11.0625 17.257812 11.0625 16.445312 L 11.0625 14.488281 C 11.0625 13.675781 10.402344 13.015625 9.589844 13.015625 Z M 6.886719 17.101562 L 6.886719 19.398438 C 6.886719 19.535156 6.773438 19.644531 6.636719 19.644531 L 4.679688 19.644531 C 4.542969 19.644531 4.429688 19.535156 4.429688 19.398438 L 4.429688 17.101562 C 4.429688 16.875 4.246094 16.691406 4.023438 16.691406 L 1.726562 16.691406 C 1.589844 16.691406 1.476562 16.582031 1.476562 16.445312 L 1.476562 14.488281 C 1.476562 14.351562 1.589844 14.238281 1.726562 14.238281 L 4.023438 14.238281 C 4.246094 14.238281 4.429688 14.058594 4.429688 13.832031 L 4.429688 11.535156 C 4.429688 11.398438 4.542969 11.289062 4.679688 11.289062 L 6.636719 11.289062 C 6.773438 11.289062 6.886719 11.398438 6.886719 11.535156 L 6.886719 13.832031 C 6.886719 14.058594 7.066406 14.238281 7.292969 14.238281 L 9.589844 14.238281 C 9.726562 14.238281 9.839844 14.351562 9.839844 14.488281 L 9.839844 16.445312 C 9.839844 16.582031 9.726562 16.691406 9.589844 16.691406 L 7.292969 16.691406 C 7.070312 16.691406 6.886719 16.875 6.886719 17.101562 Z M 6.886719 17.101562 " fill-opacity="1" fill-rule="nonzero"/></g><g clip-path="url(#e8758c1c04)"><path fill="#1c74b7" d="M 17.84375 18.308594 L 17.394531 18.308594 L 17.394531 17.859375 C 17.394531 17.15625 16.824219 16.585938 16.117188 16.585938 L 14.597656 16.585938 C 13.894531 16.585938 13.320312 17.15625 13.320312 17.859375 L 13.320312 18.308594 L 12.871094 18.308594 C 12.167969 18.308594 11.597656 18.878906 11.597656 19.582031 L 11.597656 21.105469 C 11.597656 21.808594 12.167969 22.378906 12.871094 22.378906 L 13.320312 22.378906 L 13.320312 22.828125 C 13.320312 23.53125 13.894531 24.105469 14.597656 24.105469 L 16.117188 24.105469 C 16.824219 24.105469 17.394531 23.53125 17.394531 22.828125 L 17.394531 22.378906 L 17.84375 22.378906 C 18.546875 22.378906 19.121094 21.808594 19.121094 21.105469 L 19.121094 19.582031 C 19.121094 18.878906 18.546875 18.308594 17.84375 18.308594 Z M 16.578125 21.15625 C 16.351562 21.15625 16.171875 21.339844 16.171875 21.5625 L 16.171875 22.828125 C 16.171875 22.855469 16.148438 22.878906 16.117188 22.878906 L 14.597656 22.878906 C 14.570312 22.878906 14.546875 22.855469 14.546875 22.828125 L 14.546875 21.5625 C 14.546875 21.339844 14.363281 21.15625 14.136719 21.15625 L 12.871094 21.15625 C 12.84375 21.15625 12.820312 21.132812 12.820312 21.105469 L 12.820312 19.585938 C 12.820312 19.554688 12.84375 19.53125 12.871094 19.53125 L 14.136719 19.53125 C 14.363281 19.53125 14.546875 19.351562 14.546875 19.125 L 14.546875 17.859375 C 14.546875 17.832031 14.570312 17.808594 14.597656 17.808594 L 16.117188 17.808594 C 16.148438 17.808594 16.171875 17.832031 16.171875 17.859375 L 16.171875 19.125 C 16.171875 19.351562 16.351562 19.53125 16.578125 19.53125 L 17.84375 19.53125 C 17.871094 19.53125 17.894531 19.554688 17.894531 19.585938 L 17.894531 21.105469 C 17.894531 21.132812 17.871094 21.15625 17.84375 21.15625 Z M 16.578125 21.15625 " fill-opacity="1" fill-rule="nonzero"/></g></g></g></g></g><g clip-path="url(#07a832b219)"><path fill="#1c73b7" d="M 44.378906 16.160156 L 41.96875 16.160156 L 41.96875 13.753906 C 41.96875 12.796875 41.191406 12.015625 40.230469 12.015625 L 36.65625 12.015625 C 36.191406 12.015625 35.753906 12.195312 35.425781 12.523438 C 35.097656 12.855469 34.914062 13.289062 34.914062 13.753906 L 34.914062 16.160156 L 32.507812 16.160156 C 31.546875 16.160156 30.769531 16.941406 30.769531 17.898438 L 30.769531 21.472656 C 30.769531 22.429688 31.546875 23.210938 32.507812 23.210938 L 34.914062 23.210938 L 34.914062 25.617188 C 34.914062 26.578125 35.695312 27.355469 36.65625 27.355469 L 40.230469 27.355469 C 41.191406 27.355469 41.96875 26.578125 41.96875 25.617188 L 41.96875 23.210938 L 44.378906 23.210938 C 45.335938 23.210938 46.117188 22.429688 46.117188 21.472656 L 46.117188 17.898438 C 46.117188 16.941406 45.335938 16.160156 44.378906 16.160156 Z M 41.0625 21.851562 C 40.8125 21.851562 40.609375 22.054688 40.609375 22.304688 L 40.609375 25.617188 C 40.609375 25.828125 40.441406 25.996094 40.230469 25.996094 L 36.65625 25.996094 C 36.445312 25.996094 36.273438 25.828125 36.273438 25.617188 L 36.273438 22.304688 C 36.273438 22.054688 36.074219 21.851562 35.820312 21.851562 L 32.507812 21.851562 C 32.296875 21.851562 32.128906 21.683594 32.128906 21.472656 L 32.128906 17.898438 C 32.128906 17.691406 32.296875 17.519531 32.507812 17.519531 L 35.820312 17.519531 C 36.070312 17.519531 36.273438 17.316406 36.273438 17.066406 L 36.273438 13.753906 C 36.273438 13.542969 36.445312 13.375 36.65625 13.375 L 40.230469 13.375 C 40.441406 13.375 40.609375 13.542969 40.609375 13.753906 L 40.609375 17.066406 C 40.609375 17.316406 40.8125 17.519531 41.0625 17.519531 L 44.378906 17.519531 C 44.589844 17.519531 44.757812 17.691406 44.757812 17.898438 L 44.757812 21.472656 C 44.757812 21.683594 44.589844 21.851562 44.378906 21.851562 Z M 41.0625 21.851562 " fill-opacity="1" fill-rule="nonzero"/></g><g clip-path="url(#4bde0dcf92)"><path fill="#1c73b7" d="M 30.945312 25.738281 L 29.300781 25.738281 L 29.300781 24.09375 C 29.300781 23.191406 28.566406 22.457031 27.664062 22.457031 L 25.492188 22.457031 C 24.589844 22.457031 23.855469 23.191406 23.855469 24.09375 L 23.855469 25.738281 L 22.210938 25.738281 C 21.308594 25.738281 20.574219 26.46875 20.574219 27.371094 L 20.574219 29.542969 C 20.574219 30.445312 21.308594 31.179688 22.210938 31.179688 L 23.855469 31.179688 L 23.855469 32.824219 C 23.855469 33.726562 24.589844 34.457031 25.492188 34.457031 L 27.664062 34.457031 C 28.101562 34.457031 28.511719 34.289062 28.820312 33.980469 C 29.128906 33.667969 29.300781 33.257812 29.300781 32.824219 L 29.300781 31.179688 L 30.945312 31.179688 C 31.847656 31.179688 32.582031 30.445312 32.582031 29.542969 L 32.582031 27.371094 C 32.582031 26.46875 31.847656 25.738281 30.945312 25.738281 Z M 27.941406 30.273438 L 27.941406 32.824219 C 27.941406 32.976562 27.816406 33.097656 27.664062 33.097656 L 25.492188 33.097656 C 25.339844 33.097656 25.214844 32.976562 25.214844 32.824219 L 25.214844 30.273438 C 25.214844 30.023438 25.011719 29.820312 24.761719 29.820312 L 22.210938 29.820312 C 22.058594 29.820312 21.933594 29.695312 21.933594 29.542969 L 21.933594 27.371094 C 21.933594 27.21875 22.058594 27.09375 22.210938 27.09375 L 24.761719 27.097656 C 25.011719 27.097656 25.214844 26.894531 25.214844 26.644531 L 25.214844 24.09375 C 25.214844 23.941406 25.339844 23.816406 25.492188 23.816406 L 27.664062 23.816406 C 27.816406 23.816406 27.941406 23.941406 27.941406 24.09375 L 27.941406 26.644531 C 27.941406 26.894531 28.144531 27.097656 28.394531 27.097656 L 30.945312 27.097656 C 31.097656 27.097656 31.222656 27.21875 31.222656 27.371094 L 31.222656 29.542969 C 31.222656 29.695312 31.097656 29.820312 30.945312 29.820312 L 28.394531 29.820312 C 28.144531 29.820312 27.941406 30.023438 27.941406 30.273438 Z M 27.941406 30.273438 " fill-opacity="1" fill-rule="nonzero"/></g><g clip-path="url(#eee0ce93fd)"><path fill="#1c73b7" d="M 28.316406 15.570312 L 28.023438 15.570312 L 28.023438 15.28125 C 28.023438 14.824219 27.652344 14.449219 27.191406 14.449219 L 26.203125 14.449219 C 25.746094 14.449219 25.375 14.824219 25.375 15.28125 L 25.375 15.570312 L 25.082031 15.570312 C 24.625 15.570312 24.25 15.945312 24.25 16.402344 L 24.25 17.390625 C 24.25 17.847656 24.625 18.21875 25.082031 18.21875 L 25.375 18.21875 L 25.375 18.511719 C 25.375 18.96875 25.746094 19.339844 26.203125 19.339844 L 27.191406 19.339844 C 27.652344 19.339844 28.023438 18.96875 28.023438 18.511719 L 28.023438 18.21875 L 28.316406 18.21875 C 28.773438 18.21875 29.144531 17.847656 29.144531 17.390625 L 29.144531 16.402344 C 29.144531 15.945312 28.773438 15.570312 28.316406 15.570312 Z M 27.492188 17.425781 C 27.347656 17.425781 27.226562 17.542969 27.226562 17.6875 L 27.226562 18.511719 C 27.226562 18.53125 27.210938 18.546875 27.191406 18.546875 L 26.203125 18.546875 C 26.183594 18.546875 26.167969 18.53125 26.167969 18.511719 L 26.167969 17.6875 C 26.167969 17.542969 26.050781 17.425781 25.90625 17.425781 L 25.082031 17.425781 C 25.0625 17.425781 25.046875 17.410156 25.046875 17.390625 L 25.046875 16.402344 C 25.046875 16.382812 25.0625 16.367188 25.082031 16.367188 L 25.90625 16.367188 C 26.050781 16.367188 26.167969 16.25 26.167969 16.101562 L 26.167969 15.28125 C 26.167969 15.261719 26.183594 15.246094 26.203125 15.246094 L 27.191406 15.246094 C 27.210938 15.246094 27.226562 15.261719 27.226562 15.28125 L 27.226562 16.101562 C 27.226562 16.25 27.347656 16.367188 27.492188 16.367188 L 28.316406 16.367188 C 28.332031 16.367188 28.347656 16.382812 28.347656 16.402344 L 28.347656 17.390625 C 28.347656 17.410156 28.332031 17.425781 28.316406 17.425781 Z M 27.492188 17.425781 " fill-opacity="1" fill-rule="nonzero"/></g></svg>