<svg xmlns="http://www.w3.org/2000/svg" xmlns:xlink="http://www.w3.org/1999/xlink" width="80" zoomAndPan="magnify" viewBox="0 0 60 60" height="80" preserveAspectRatio="xMidYMid meet" version="1.0"><defs><clipPath id="6e75b93e73"><path d="M 6.867188 0.207031 L 30 0.207031 L 30 23 L 6.867188 23 Z M 6.867188 0.207031 " clip-rule="nonzero"/></clipPath><clipPath id="2fda2f62a9"><path d="M 43 18 L 53.367188 18 L 53.367188 29 L 43 29 Z M 43 18 " clip-rule="nonzero"/></clipPath></defs><g clip-path="url(#6e75b93e73)"><path fill="#1c73b7" d="M 18.160156 22.761719 C 16.355469 22.761719 14.890625 21.292969 14.890625 19.488281 L 14.890625 14.757812 L 10.160156 14.757812 C 8.351562 14.757812 6.886719 13.289062 6.886719 11.484375 C 6.886719 10.609375 7.226562 9.789062 7.84375 9.171875 C 8.460938 8.550781 9.285156 8.210938 10.160156 8.210938 L 14.890625 8.210938 L 14.890625 3.480469 C 14.890625 1.675781 16.359375 0.207031 18.160156 0.207031 C 19.039062 0.207031 19.859375 0.550781 20.476562 1.167969 C 21.09375 1.785156 21.4375 2.605469 21.4375 3.480469 L 21.4375 8.210938 L 26.164062 8.210938 C 27.972656 8.210938 29.4375 9.679688 29.4375 11.484375 C 29.4375 13.289062 27.96875 14.757812 26.164062 14.757812 L 21.4375 14.757812 L 21.4375 19.488281 C 21.4375 21.292969 19.964844 22.757812 18.164062 22.757812 Z M 10.160156 8.839844 C 9.449219 8.839844 8.789062 9.117188 8.289062 9.613281 C 7.789062 10.113281 7.511719 10.777344 7.511719 11.484375 C 7.511719 12.941406 8.699219 14.128906 10.15625 14.128906 L 15.203125 14.128906 C 15.375 14.128906 15.519531 14.269531 15.519531 14.441406 L 15.519531 19.488281 C 15.519531 20.945312 16.703125 22.128906 18.160156 22.128906 C 19.621094 22.128906 20.804688 20.945312 20.804688 19.488281 L 20.804688 14.441406 C 20.804688 14.269531 20.945312 14.128906 21.121094 14.128906 L 26.164062 14.128906 C 27.621094 14.128906 28.808594 12.941406 28.808594 11.484375 C 28.808594 10.027344 27.621094 8.839844 26.164062 8.839844 L 21.121094 8.839844 C 20.945312 8.839844 20.804688 8.699219 20.804688 8.527344 L 20.804688 3.480469 C 20.804688 2.773438 20.53125 2.109375 20.03125 1.613281 C 19.53125 1.113281 18.867188 0.835938 18.160156 0.835938 C 16.703125 0.835938 15.519531 2.023438 15.519531 3.480469 L 15.519531 8.527344 C 15.519531 8.699219 15.375 8.839844 15.203125 8.839844 Z M 10.160156 8.839844 " fill-opacity="1" fill-rule="nonzero"/></g><path fill="#1c73b7" d="M 52.488281 40.429688 C 52.488281 43.347656 50.125 45.710938 47.207031 45.710938 L 38.199219 45.710938 L 38.199219 54.722656 C 38.199219 57.640625 35.832031 60.003906 32.914062 60.003906 C 30 60.003906 27.632812 57.636719 27.632812 54.722656 L 27.632812 45.710938 L 18.625 45.710938 C 15.707031 45.710938 13.339844 43.347656 13.339844 40.429688 C 13.339844 38.96875 13.933594 37.648438 14.890625 36.695312 C 15.84375 35.738281 17.164062 35.148438 18.625 35.148438 L 27.632812 35.148438 L 27.632812 26.136719 C 27.632812 23.21875 30 20.855469 32.914062 20.855469 C 34.375 20.855469 35.695312 21.449219 36.648438 22.402344 C 37.605469 23.359375 38.199219 24.679688 38.199219 26.136719 L 38.199219 35.148438 L 47.207031 35.148438 C 50.125 35.148438 52.488281 37.511719 52.488281 40.429688 Z M 52.488281 40.429688 " fill-opacity="1" fill-rule="nonzero"/><g clip-path="url(#2fda2f62a9)"><path fill="#1c73b7" d="M 48.355469 28.445312 C 47.523438 28.445312 46.84375 27.769531 46.84375 26.933594 L 46.84375 25.207031 L 45.117188 25.207031 C 44.285156 25.207031 43.605469 24.527344 43.605469 23.695312 C 43.605469 23.289062 43.765625 22.910156 44.050781 22.625 C 44.335938 22.339844 44.714844 22.183594 45.121094 22.183594 L 46.847656 22.183594 L 46.847656 20.457031 C 46.847656 19.621094 47.523438 18.945312 48.359375 18.945312 C 48.761719 18.945312 49.144531 19.101562 49.425781 19.386719 C 49.710938 19.671875 49.871094 20.050781 49.871094 20.457031 L 49.871094 22.183594 L 51.597656 22.183594 C 52.429688 22.183594 53.105469 22.859375 53.105469 23.695312 C 53.105469 24.527344 52.429688 25.207031 51.597656 25.207031 L 49.871094 25.207031 L 49.871094 26.933594 C 49.871094 27.769531 49.191406 28.445312 48.359375 28.445312 Z M 45.117188 22.8125 C 44.882812 22.8125 44.660156 22.902344 44.492188 23.070312 C 44.324219 23.234375 44.234375 23.457031 44.234375 23.691406 C 44.234375 24.179688 44.628906 24.574219 45.117188 24.574219 L 47.15625 24.574219 C 47.328125 24.574219 47.472656 24.71875 47.472656 24.890625 L 47.472656 26.933594 C 47.472656 27.417969 47.867188 27.816406 48.351562 27.816406 C 48.839844 27.816406 49.234375 27.417969 49.234375 26.933594 L 49.234375 24.890625 C 49.234375 24.71875 49.375 24.574219 49.550781 24.574219 L 51.589844 24.574219 C 52.078125 24.574219 52.472656 24.179688 52.472656 23.691406 C 52.472656 23.207031 52.078125 22.8125 51.589844 22.8125 L 49.550781 22.8125 C 49.375 22.8125 49.234375 22.667969 49.234375 22.496094 L 49.234375 20.453125 C 49.234375 20.21875 49.144531 19.996094 48.976562 19.828125 C 48.8125 19.664062 48.589844 19.570312 48.351562 19.570312 C 47.867188 19.570312 47.472656 19.964844 47.472656 20.453125 L 47.472656 22.496094 C 47.472656 22.667969 47.328125 22.808594 47.15625 22.808594 L 45.117188 22.808594 Z M 45.117188 22.8125 " fill-opacity="1" fill-rule="nonzero"/></g></svg>