<svg xmlns="http://www.w3.org/2000/svg" xmlns:xlink="http://www.w3.org/1999/xlink" width="45" zoomAndPan="magnify" viewBox="0 0 33.75 60" height="80" preserveAspectRatio="xMidYMid meet" version="1.0"><defs><filter x="0%" y="0%" width="100%" height="100%" id="4aa04dd782"><feColorMatrix values="0 0 0 0 1 0 0 0 0 1 0 0 0 0 1 0 0 0 1 0" color-interpolation-filters="sRGB"/></filter><clipPath id="271b6bc327"><path d="M 0 0.21875 L 33.5 0.21875 L 33.5 59.777344 L 0 59.777344 Z M 0 0.21875 " clip-rule="nonzero"/></clipPath><mask id="86dbe2df0f"><g filter="url(#4aa04dd782)"><rect x="-3.375" width="40.5" fill="#000000" y="-6" height="72" fill-opacity="0.04"/></g></mask><clipPath id="4cb1df3d59"><path d="M 0 0.21875 L 33.5 0.21875 L 33.5 59.777344 L 0 59.777344 Z M 0 0.21875 " clip-rule="nonzero"/></clipPath><clipPath id="1181d834c5"><rect x="0" width="34" y="0" height="60"/></clipPath></defs><g clip-path="url(#271b6bc327)"><g mask="url(#86dbe2df0f)"><g transform="matrix(1, 0, 0, 1, 0, -0.000000000000005024)"><g clip-path="url(#1181d834c5)"><g clip-path="url(#4cb1df3d59)"><path fill="#1c73b7" d="M 36.921875 0.386719 C 52.183594 2.847656 53.0625 15.144531 52.949219 18.074219 L 49.261719 31.851562 C 49.144531 34.863281 44.820312 47.925781 33.433594 56.351562 C 19.203125 66.886719 -6.972656 51.382812 1.765625 30.992188 C 6.046875 21.011719 17.875 24.886719 21.378906 13.234375 C 22.773438 8.585938 27.804688 -1.085938 36.921875 0.386719 Z M 36.921875 0.386719 " fill-opacity="1" fill-rule="nonzero"/></g></g></g></g></g></svg>